<?xml version="1.0" encoding="utf-8"?>
<!-- Generator: Adobe Illustrator 16.0.0, SVG Export Plug-In . SVG Version: 6.00 Build 0)  -->
<!DOCTYPE svg PUBLIC "-//W3C//DTD SVG 1.1//EN" "http://www.w3.org/Graphics/SVG/1.1/DTD/svg11.dtd">
<svg version="1.1" id="Layer_1" xmlns="http://www.w3.org/2000/svg" xmlns:xlink="http://www.w3.org/1999/xlink" x="0px" y="0px"
	 width="175px" height="215px" viewBox="0 0 175 215" enable-background="new 0 0 175 215" xml:space="preserve">
<g>
	<g>
		<path fill-rule="evenodd" clip-rule="evenodd" fill="#2A2722" d="M140.808,23.123c0.004-0.065,0.012-0.131,0.016-0.197
			c0.006-0.086,0.01-0.173,0.004-0.261c-0.047-1.079-0.246-1.733-0.242-2.324c-0.234-0.321-1.453-2.206-1.629-2.441
			c-0.408-0.551-0.621-0.631-1.256-0.338c-0.047,0.021-0.098,0.03-0.15,0.028c-0.119-0.158-0.367-0.661-0.604-0.907
			c-0.941-0.991-1.889-1.979-2.861-2.94c-0.365-0.365-1.656-0.115-1.506,0.095c1.078,1.51,0.256,4.03,1.051,6.01
			c0.619,1.544,3.203,2.688,3.186,4.455c-0.006,1.343-1.27,1.816-2.225,2.412c-1.154,0.717-2.252,1.357-3.344,1.729
			c-0.281,0.095-0.602,0.011-0.855,0.086c-1.781,0.515-2.957,1.688-4.977,1.817c-0.826,0.739-2.008,0.823-3.094,1.213
			c-0.459,0.163-0.889,0.523-1.367,0.688c-0.684,0.235-1.396,0.284-2.061,0.522c-0.684,0.246-1.281,0.763-1.971,1.038
			c-0.576,0.226-1.25,0.294-1.803,0.518c-0.537,0.216-1.33,0.66-2.064,1.037c-0.723,0.373-1.393,1.057-2.141,1.035
			c-0.447-0.012-0.771-0.408-1.203-0.424c-1.82-0.069-2.289,2.143-3.256,3.014c-0.799,0.718-1.537,0.923-2.833,1.124
			c-0.134,0.161-1.505,1.663-1.801,0.691c-0.179-0.577,0.688-0.966,1.024-1.375c0.524-0.641,1.729-2.045,1.711-3.014
			c-0.006-0.346-0.389-0.919-0.436-1.37c-0.166-1.683,0.547-4.172-1.041-4.635c-0.957-0.278-1.831,0.237-2.924-0.419
			c-0.852-1.328-2.627-1.821-3.104-3.515c-0.098-0.354,0.031-0.759-0.088-1.118c-0.395-1.225-1.186-1.204-2.495-1.453
			c-0.309-0.058-0.646-0.271-1.029-0.34c-0.594-0.109-1.367-0.067-2.058-0.165c-1.507-0.211-1.939-0.672-3.185-0.076
			c-1.243-0.526-1.302-1.862-0.782-3.177c-0.336-0.352-0.797-0.577-1.549-0.513c-3.771-2.439-7.075-5.492-10.669-8.043
			c-0.694-0.491-1.429-1.042-2.156-1.541c-0.751-0.516-1.612-0.982-2.146-1.537c-0.731-0.755-1.061-1.926-2.5-1.539
			c-0.419-0.323-0.917-1.03-1.804-1.198c-0.528-0.1-1.288,0.003-1.891,0.006c-0.552,0.001-1.377-0.219-1.543,0.347
			c0.387,0.639,1.115,0.912,2.062,0.767c0.526,0.444,1.313,0.631,1.725,1.196c0.406,0.068,0.548-0.133,0.941-0.087
			c0.608,0.466,0.974,1.286,1.979,1.109c1.117,0.882,2.505,2.321,3.614,3.342c0.556,0.509,1.299,1.123,1.293,1.714
			c-0.006,0.655-0.669,0.787-0.769,1.464c0.45,0.778,1.035,1.611,1.809,1.882c0.402,0.142,0.89-0.018,1.292,0.083
			c0.724,0.187,1.323,0.765,1.721,1.285c1.293,1.699,1.729,4.041,2.934,6.089c1.242-0.044,1.995,0.406,2.239,1.366
			c-0.08,0.899-0.821,1.753-1.021,2.752c-0.051,0.252,0.044,0.586,0,0.859c-0.107,0.663-0.52,1.231-0.509,1.807
			c0.005,0.462,0.314,0.859,0.262,1.286c-0.058,0.459-0.702,0.969-0.599,1.55c0.138,0.799,1.79,0.795,2.58,1.192
			c0.354,0.183,0.714,0.625,1.12,0.858c0.371,0.21,0.766,0.233,1.033,0.426c0.431,0.313,0.713,1.15,0.946,1.455
			c0.648,0.85,2.132,1.067,2.409,2.141c-0.338,0.659-0.948,1.055-1.971,1.036c-0.443-0.495-0.262-1.633-0.863-1.972
			c-1.174-0.142-1.842-0.794-3.096-0.852c0.052,0.802,0.926,1.02,1.292,1.716c0.134,0.25,0.436,0.821,0.348,1.287
			c-0.263,1.389-1.904,0.513-2.921,0.266c-0.36-0.086-0.696,0.016-0.942-0.085c-0.582-0.232-1.148-1.243-1.807-1.625
			c-1.118-0.645-2.238-0.178-3.269-0.163c-1.722,0.026-3.309-1.109-3.698-2.563c-0.073-0.284-0.008-0.664-0.088-0.947
			c-0.365-1.272-1.513-1.923-1.643-3.435c-1.312-2-2.512-4.332-4.14-6.167c-1.085-1.231-2.368-2.454-3.616-3.169
			c-3.363-1.925-7.182,1.058-7.889,4.142c0.635,0.243,1.132,0.292,1.205,0.946c0.182,1.622-3.877,1.885-2.136,4.212
			c1.05,0.51,2.408-0.225,3.434-0.009c0.34-0.035,0.367-0.379,0.687-0.432c0.39,0.317,0.843,0.083,1.201-0.089
			c0.922-1.129,0.093-3.857,1.879-3.956c1.404-0.081,1.646,1.394,1.983,2.399c0.268,0.799,0.847,1.542,1.036,2.316
			c0.069,0.276,0.005,0.532,0.088,0.773c0.246,0.696,0.738,1.025,1.037,1.8c0.297,0.778,0.295,1.599,0.521,2.403
			c0.527,1.872,1.862,3.258,2.334,4.633c1.063,1.335,3.074,2.13,4.642,3.075c0.316,0.19,0.553,0.54,0.866,0.687
			c0.513,0.241,1.119,0.245,1.632,0.51c0.417,0.218,0.76,0.637,1.204,0.855c0.521,0.261,1.193,0.316,1.719,0.596
			c1.513,0.809,3.399,1.976,4.645,2.908c1.401,1.048,3.548,2.994,4.14,4.284c0.161,0.357,0.396,1.126,0.344,1.456
			c-0.069,0.483-0.714,0.837-0.854,1.208c-0.125,0.324-0.021,0.689-0.164,1.03c-0.396,0.905-2.164,2.323-3.518,3.103
			c-1.048,0.6-2.991,0.904-4.204,0.955c-1.175,0.053-2.298-0.371-3.612-0.333c-0.417-0.431-0.734-0.449-0.775-1.028
			c-0.042-0.629,0.571-0.779,0.856-1.546c0.156-0.426,0.026-1,0.166-1.292c0.426-0.896,2.093-1.666,3.004-1.553
			c0.636,0.077,1.691,0.93,1.632,1.456c-0.073,0.676-1.59,0.603-1.795,1.206c-0.271,0.775,0.419,1.105,1.287,1.37
			c0.581-0.591,1.378-0.684,1.889-1.206c1.393-1.426,0.123-3.197-0.185-4.811c-0.225-1.172-0.197-1.731-0.866-2.315
			c-0.391-0.346-0.914-0.334-1.376-0.599c-0.756-0.433-1.092-1.339-1.725-1.369c-1.413-0.405-2.569-0.599-3.522-1.278
			c-0.365-0.259-0.567-0.748-0.946-1.028c-0.865-0.636-1.961-0.915-3.007-1.194c-0.104,1.108,1.555,1.489,1.979,2.571
			c0.283,0.726,0.089,1.404,0.519,1.975c0.33,0.436,1.444,1.075,1.979,1.111c0.828,0.051,1.768-0.881,2.066,0.253
			c0.377,1.465-1.233,1.642-2.228,1.81c-0.798,1.837-0.351,4.905-2.136,5.76c-0.385-0.39-1.004-0.672-1.204-1.287
			c-0.077-0.236,0.013-0.529-0.089-0.771c-0.341-0.808-1.636-1.687-2.409-1.714c-0.302,0.966,0.484,1.116,0.521,1.89
			c0.048,1.042-1.035,2.519-2.225,2.584c-0.607,0.03-1.916-0.504-2.926-0.681c-0.334-0.058-0.61,0.062-0.855,0.003
			c-0.57-0.137-1.107-0.557-1.722-0.684c-0.405-0.081-0.825,0.007-1.2-0.081c-2.109-0.486-3.895-1.832-4.048-3.941
			c-0.361-0.295-0.668-0.651-1.29-0.683c0.178,2.109-1.308,3.494-2.307,4.388c-0.929,0.828-2.155,1.352-2.918,2.156
			c-1.058,1.119-2.057,3.589-1.354,6.016c0.137,0.459,0.612,0.931,0.86,1.459c0.262,0.546,0.368,1.208,0.608,1.625
			c0.486,0.864,1.425,1.654,2.157,2.49c1.614,1.848,2.72,3.16,4.391,4.967c0.549,0.599,1.79,2.076,1.983,2.743
			c0.313,1.082-0.19,2.033-1.111,2.149c-1.147,0.148-2.25-1.561-3.014-2.568c-0.935-1.226-1.867-2.013-2.671-2.995
			c-0.746-0.916-1.769-2.173-2.754-2.744c-0.456-0.261-1.006-0.233-1.463-0.423c-0.453-0.191-0.76-0.573-1.118-0.688
			c-2.468-0.784-4.607,0.17-6.011,1.219c-1.454,1.095-1.875,2.972-2.82,4.392c-0.987,1.481-1.416,2.323-3.688,1.555
			c0.258,0.8,1.127,1.476,1.723,1.797c1.955,1.062,4.07-0.783,5.063-1.642c1.129-0.991,1.688-2.598,3.342-2.671
			c1.068-0.052,2.957,0.85,2.925,2.052c-0.023,0.917-0.71,1.223-1.801,1.037c-1.646,0.414-1.905,2.195-3.167,3.012
			c-0.407,0.263-0.886,0.176-1.203,0.692c1.203,1.553,2.589-0.524,4.123-0.186c0.668,0.146,1.574,1.347,1.98,1.886
			c1.465,1.937,2.666,3.842,4.139,5.571c1.977,2.316,4.341,4.208,6.973,5.734c2.494,0.65,4.628,1.76,7.477,2.041
			c1.976,0.191,5.008,0.035,6.698-0.277c1.175-0.218,2.192-1.071,3.348-0.784c1.017,0.258,0.85,1.388,0.952,2.574
			c0.225,2.573,0.557,4.678,1.048,6.528c0.392,1.466,0.635,2.499,1.125,3.603c0.227,0.502,0.312,1.107,0.523,1.544
			c0.174,0.36,0.561,0.718,0.773,1.115c0.27,0.499,0.412,1.125,0.692,1.546c0.225,0.336,0.609,0.59,0.864,0.94
			c1.584,2.243,3.535,4.552,5.77,5.998c1.323,0.856,2.411,1.014,2.413,2.911c0.007,2.424-0.26,5.767-0.493,7.561
			c-0.7,0.947-1.565,2.721-0.592,3.868c1.179,0.87,2.636,0.449,4.212,0.587c1.02,0.088,1.941,0.371,2.664,0.509
			c0.394,0.075,0.83,0.012,1.202,0.087c1.138,0.223,2.157,0.818,3.095,0.936c2.791,0.331,4.119-0.618,5.066-2.167
			c-0.279-1.864,0.977-2.219,1.617-3.181c-0.377-0.576-0.994-0.667-1.545-0.51c-1.602,0.451-1.896,3.096-4.461,2.675
			c-0.745-0.124-0.844-0.576-1.89-0.683c-0.673-1.446-3.506-1.703-3.877-3.249c-0.161-0.682,0.058-1.908,0.168-2.496
			c0.163-0.863,0.796-2.62,1.105-3.094c0.794-1.203,2.003-0.763,3.693-0.957c1.675-0.185,3.065-1.157,4.718-1.215
			c1.807-1.185,3.219-1.669,4.801-2.847c1.359-1.012,2.664-2.026,3.773-3.105c0.996-0.96,1.916-2.793,3.166-3.266
			c1.299-0.5,2.504,0.281,3.779,0.072c-0.012-0.594-0.623-0.752-0.859-1.113c-0.23-0.354-0.262-0.85-0.52-1.201
			c-0.387-0.532-1.158-1.264-1.723-1.456c-1.07-0.369-2.678,0.185-2.834-0.938c-0.18-1.292,2.145-2.049,3.17-1.985
			c2.473,0.146,4.424,3.193,7.393,2.385c0.682-0.184,0.99-0.717,1.803-0.862c0.898-0.552,1.352-2.103,2.572-2.331
			c0.988-0.181,2.465,0.664,3.002-0.348c-1.164,0.019-1.955-1.111-3.012-1.281c-1.789-0.289-2.49,0.826-3.602,1.122
			c-2.018,0.544-3.455-2.557-4.562-3.335c-1.377-0.961-3.992-1.64-6.1-1.184c-3.352,0.729-5.455,3.582-7.371,5.862
			c-0.701,0.832-1.555,1.708-2.482,2.669c-1.039,1.07-1.887,2.795-3.944,2.676c-1.749-1.002-0.046-3.051,0.413-4.729
			c0.238-0.861,0.291-2.161,0.77-2.923c0.32-0.518,1.17-0.766,1.711-1.293c1.051-1.018,1.271-2.71,2.398-3.185
			c0.449-0.188,1.168-0.017,1.199-0.433c-0.869-1.179-2.807-0.44-4.038-1.107c-0.782-0.42-1.692-1.694-1.985-2.827
			c-0.244-0.967-0.247-2.068-0.521-3.092c-0.211-0.779-0.568-1.404-0.699-2.144c-0.195-1.173-0.177-2.152-0.433-3.263
			c-0.132-0.57-0.569-1.097-0.521-1.543c0.045-0.386,0.625-1.089,0.938-1.547c0.354-0.517,0.636-1.131,0.943-1.549
			c0.365-0.501,0.898-0.779,1.195-1.209c0.242-0.34,0.322-0.93,0.518-1.206c0.619-0.876,1.828-0.775,2.83-1.208
			c1.393-0.601,1.949-1.75,3-2.756c0.299-1.361,0.617-2.699,0.674-4.299c0.357-0.523,1.053-1.604,0.424-2.315
			c-0.68-0.074-0.746,0.456-1.461,0.345c-0.449-0.595-1.064-1.433-1.125-2.143c0.961-0.185,1.705,0.579,3.012,0.333
			c0.963-0.792,1.633-2,2.395-3.01c0.355-0.47,1.199-0.864,0.943-1.636c-1.266-0.021-2.221,1.218-3.777,1.555
			c-0.463,0.103-0.959,0.007-1.461,0.093c-1.127,0.188-2.414,1.011-3,1.64c-0.541,0.579-0.986,2.046-1.973,1.978
			c-0.605-0.04-0.933-0.921-1.291-1.108c0.182-1.449-2.018-2.167-2.07-3.519c-0.042-1.018,1.553-1.967,2.223-2.838
			c1.115-1.454,2.76-3.894,3.596-5.593c0.246-0.5,0.309-1.054,0.508-1.633c0.289-0.809,0.861-1.51,1.029-2.152
			c0.336-1.343-0.039-2.742,0.33-4.208c0.111-0.455,0.537-1.252,0.939-1.809c2.186-3.037,5.541-6.064,8.91-8.012
			c0.432-0.25,0.957-0.345,1.373-0.604c0.398-0.254,0.697-0.621,1.117-0.863c1.695-0.984,3.537-2.209,5.482-2.765
			c1.072-0.304,1.494-0.78,2.318-1.122c0.578-0.239,1.256-0.245,1.805-0.52c0.346-0.175,0.574-0.523,0.939-0.688
			c0.793-0.373,1.672-0.518,2.314-1.122c1.191-0.124,1.896-1.072,2.744-1.557c1.158-0.656,2.672-1.563,3.516-2.586
			C139.64,28.7,140.563,25.648,140.808,23.123z"/>
	</g>
</g>
<g>
	<path fill="#2A2722" d="M7.104,188.779c2.205,0,3.527-0.256,3.527-2.997v-19.187H8.391c-3.748,0-4.299,1.499-4.666,3.545H2.806
		l0.257-4.97h18.408l0.258,4.97H20.81c-0.221-2.302-1.322-3.545-4.924-3.545h-1.983v19.187c0,2.741,1.322,2.997,3.527,2.997v0.73
		H7.104V188.779z"/>
	<path fill="#2A2722" d="M23.189,188.925c1.587,0,2.557-0.204,2.557-2.397v-13.507c0-2.192-0.97-2.397-2.557-2.397v-0.584h7.729
		v0.584c-1.616,0-2.557,0.205-2.557,2.397v5.877h8.316v-5.877c0-2.192-0.97-2.397-2.557-2.397v-0.584h7.729v0.584
		c-1.616,0-2.557,0.205-2.557,2.397v13.507c0,2.193,0.94,2.397,2.557,2.397v0.585h-7.729v-0.585c1.587,0,2.557-0.204,2.557-2.397
		v-6.49h-8.316v6.49c0,2.193,0.94,2.397,2.557,2.397v0.585h-7.729V188.925z"/>
	<path fill="#2A2722" d="M42.766,188.925c2.292,0,2.674-0.994,3.526-3.245l6.083-15.934h1.646l6.112,16.168
		c0.705,1.842,1.47,3.011,3.38,3.011v0.585h-7.641v-0.585c0.911,0,2.086-0.204,2.086-0.965c0-0.38-0.146-0.906-0.265-1.228
		l-1.381-3.684h-7.377l-1.264,3.479c-0.176,0.526-0.353,0.994-0.353,1.374c0,0.849,0.94,1.023,2.087,1.023v0.585h-6.642V188.925z
		 M49.349,181.908h6.554l-3.263-8.917L49.349,181.908z"/>
	<path fill="#2A2722" d="M64.457,188.925c1.616,0,2.557-0.204,2.557-2.397v-13.507c0-2.192-0.94-2.397-2.557-2.397v-0.584h7.729
		v0.584c-1.587,0-2.557,0.205-2.557,2.397v13.507c0,2.193,0.97,2.397,2.557,2.397v0.585h-7.729V188.925z"/>
	<path fill="#2A2722" d="M83.364,188.779c2.021,0,3.196-0.256,3.196-2.997v-16.884c0-2.741-1.176-2.997-3.196-2.997v-0.73h9.736
		c3.969,0,8.23,1.023,8.23,5.592c0,4.678-3.82,5.92-6.43,6.139l4.851,8.187c1.176,1.974,2.204,3.691,4.519,3.691v0.73h-5.584
		l-7.35-12.353h-1.506v8.625c0,2.741,1.213,2.997,3.233,2.997v0.73h-9.7V188.779z M89.831,175.732c4.262,0,8.047-0.402,8.047-4.97
		c0-3.106-2.719-4.167-5.658-4.167c-2.205,0-2.389,0.439-2.389,2.412V175.732z"/>
	<path fill="#2A2722" d="M105.3,188.925c2.291,0,2.674-0.994,3.525-3.245l6.084-15.934h1.646l6.111,16.168
		c0.707,1.842,1.471,3.011,3.381,3.011v0.585h-7.641v-0.585c0.91,0,2.086-0.204,2.086-0.965c0-0.38-0.146-0.906-0.264-1.228
		l-1.383-3.684h-7.375l-1.264,3.479c-0.178,0.526-0.354,0.994-0.354,1.374c0,0.849,0.941,1.023,2.086,1.023v0.585H105.3V188.925z
		 M111.882,181.908h6.555l-3.262-8.917L111.882,181.908z"/>
	<path fill="#2A2722" d="M126.931,188.925c1.588,0,2.559-0.204,2.559-2.397v-13.507c0-2.192-0.971-2.397-2.559-2.397v-0.584h6.113
		l5.76,16.635h0.059l5.732-16.635h6.053v0.584c-1.615,0-2.557,0.205-2.557,2.397v13.507c0,2.193,0.941,2.397,2.557,2.397v0.585
		h-7.553v-0.585c1.588,0,2.557-0.204,2.557-2.397v-14.793h-0.059l-6.113,17.775h-2.145l-6.113-17.775h-0.059v14.793
		c0,2.193,0.971,2.397,2.557,2.397v0.585h-6.789V188.925z"/>
	<path fill="#2A2722" d="M151.446,188.925c2.291,0,2.674-0.994,3.525-3.245l6.084-15.934h1.646l6.111,16.168
		c0.707,1.842,1.471,3.011,3.381,3.011v0.585h-7.641v-0.585c0.91,0,2.086-0.204,2.086-0.965c0-0.38-0.146-0.906-0.264-1.228
		l-1.383-3.684h-7.375l-1.264,3.479c-0.178,0.526-0.354,0.994-0.354,1.374c0,0.849,0.941,1.023,2.086,1.023v0.585h-6.641V188.925z
		 M158.028,181.908h6.555l-3.262-8.917L158.028,181.908z"/>
</g>
<g opacity="0.6">
	<path fill="#2A2722" d="M48.188,201.832h1.384v2.117h0.038c0.43-0.975,1.422-2.323,2.862-2.323v1.63h-0.394
		c-1.945,0-2.507,1.649-2.507,3.279v4.216h-1.384V201.832z"/>
	<path fill="#2A2722" d="M60.496,210.601c-0.729,0.207-1.197,0.356-2.207,0.356c-2.657,0-4.396-1.648-4.396-4.928
		c0-2.549,1.01-4.403,3.61-4.403c3.161,0,3.161,2.866,3.161,3.598h-5.219c0,1.967,0.673,4.834,3.423,4.834
		c0.805,0,1.104-0.131,1.628-0.263V210.601z M59.224,204.398c0-0.768-0.225-2.023-1.814-2.023s-1.927,1.537-1.927,2.023H59.224z"/>
	<path fill="#2A2722" d="M67.602,203.274c-0.299-0.168-1.216-0.712-2.264-0.712c-0.804,0-1.533,0.337-1.533,1.068
		c0,1.067,1.29,1.367,2.843,2.305c0.86,0.506,1.534,1.124,1.534,2.38c0,1.387-0.991,2.642-3.33,2.642
		c-1.216,0-1.982-0.206-2.413-0.375v-1.405c0.188,0.112,1.328,0.844,2.488,0.844c1.029,0,1.871-0.432,1.871-1.443
		c0-0.899-0.861-1.255-1.908-1.873c-1.123-0.656-2.414-1.125-2.414-2.643c0-1.536,1.029-2.436,3.05-2.436
		c0.936,0,1.721,0.243,2.076,0.318V203.274z"/>
	<path fill="#2A2722" d="M74.914,210.882c-0.448,0.075-0.729,0.075-1.104,0.075c-1.833,0-2.675-0.637-2.656-2.248v-6.016h-1.571
		v-0.861h1.571v-2.099l1.385-0.844v2.942h2.432v0.861h-2.432v5.284c-0.02,1.05,0,2.08,1.533,2.08c0.468,0,0.674-0.057,0.842-0.112
		V210.882z"/>
	<path fill="#2A2722" d="M81.646,209.495h-0.037c-0.262,0.432-1.085,1.462-2.563,1.462c-1.44,0-2.413-1.049-2.413-2.248
		c0-2.624,3.349-2.755,5.014-2.849v-1.181c0-0.955-0.112-2.305-1.59-2.305c-1.422,0-1.516,1.105-1.571,1.78h-1.609
		c0.094-1.087,0.637-2.529,3.236-2.529c2.619,0,2.919,1.705,2.919,2.979v6.146h-1.385V209.495z M81.646,206.61
		c-0.486,0.037-3.517,0-3.517,1.911c0,0.955,0.599,1.499,1.403,1.499c1.122,0,2.113-1.05,2.113-2.437V206.61z"/>
	<path fill="#2A2722" d="M91.765,208.577h-0.037c-0.861,1.837-1.422,2.38-3.199,2.38c-1.478,0-2.132-1.593-2.132-2.755v-6.37h1.384
		v5.771c0,0.956,0.393,2.212,1.59,2.212c1.628,0,2.357-2.437,2.357-4.16v-3.822h1.385v8.919h-1.348V208.577z"/>
	<path fill="#2A2722" d="M96.645,201.832h1.384v2.117h0.038c0.431-0.975,1.421-2.323,2.862-2.323v1.63h-0.393
		c-1.945,0-2.508,1.649-2.508,3.279v4.216h-1.384V201.832z"/>
	<path fill="#2A2722" d="M107.306,209.495h-0.037c-0.262,0.432-1.084,1.462-2.562,1.462c-1.439,0-2.413-1.049-2.413-2.248
		c0-2.624,3.349-2.755,5.013-2.849v-1.181c0-0.955-0.111-2.305-1.59-2.305c-1.422,0-1.516,1.105-1.57,1.78h-1.609
		c0.094-1.087,0.637-2.529,3.236-2.529c2.619,0,2.918,1.705,2.918,2.979v6.146h-1.385V209.495z M107.306,206.61
		c-0.486,0.037-3.516,0-3.516,1.911c0,0.955,0.598,1.499,1.402,1.499c1.123,0,2.113-1.05,2.113-2.437V206.61z"/>
	<path fill="#2A2722" d="M112.13,201.832h1.348v2.192h0.037c0.543-1.125,1.439-2.398,3.199-2.398c1.553,0,2.133,1.349,2.133,2.342
		v6.783h-1.385v-5.771c0-0.955,0-2.211-1.234-2.211c-1.871,0-2.713,2.436-2.713,4.16v3.822h-1.385V201.832z"/>
	<path fill="#2A2722" d="M126.757,210.882c-0.449,0.075-0.73,0.075-1.105,0.075c-1.832,0-2.674-0.637-2.656-2.248v-6.016h-1.57
		v-0.861h1.57v-2.099l1.385-0.844v2.942h2.432v0.861h-2.432v5.284c-0.018,1.05,0,2.08,1.535,2.08c0.467,0,0.672-0.057,0.842-0.112
		V210.882z"/>
</g>
<g opacity="0.6">
	<g>
		<path fill="#2A2722" d="M6.583,207.355c11.239,0,22.478,0,33.717,0c0.645,0,0.645-1,0-1c-11.239,0-22.478,0-33.717,0
			C5.938,206.355,5.938,207.355,6.583,207.355L6.583,207.355z"/>
	</g>
</g>
<g opacity="0.6">
	<g>
		<path fill="#2A2722" d="M134.699,207.355c11.239,0,22.478,0,33.717,0c0.645,0,0.645-1,0-1c-11.239,0-22.478,0-33.717,0
			C134.055,206.355,134.055,207.355,134.699,207.355L134.699,207.355z"/>
	</g>
</g>
</svg>
