<?xml version="1.0" encoding="utf-8"?>
<!-- Generator: Adobe Illustrator 16.0.0, SVG Export Plug-In . SVG Version: 6.00 Build 0)  -->
<!DOCTYPE svg PUBLIC "-//W3C//DTD SVG 1.1//EN" "http://www.w3.org/Graphics/SVG/1.1/DTD/svg11.dtd">
<svg version="1.1" id="Layer_1" xmlns="http://www.w3.org/2000/svg" xmlns:xlink="http://www.w3.org/1999/xlink" x="0px" y="0px"
	 width="100px" height="100px" viewBox="0 0 100 100" enable-background="new 0 0 100 100" xml:space="preserve">
<path opacity="0.8" fill="#ECEAE0" d="M91.098,16.414H8.903C4.538,16.414,1,19.952,1,24.317v52.162c0,4.365,3.538,7.903,7.903,7.903
	h82.195c4.365,0,7.902-3.538,7.902-7.903V24.317C99,19.952,95.463,16.414,91.098,16.414z M49.997,65.411
	c-7.856,0-14.226-6.369-14.226-14.227c0-7.857,6.369-14.226,14.226-14.226c7.857,0,14.226,6.369,14.226,14.226
	C64.223,59.042,57.854,65.411,49.997,65.411z"/>
<g id="Body_2" opacity="0.5">
	<g>
		<path fill="#ECEAE0" d="M75.527,10.809c-1.188-3.99-5.625-7.041-9.975-7.041H34.161c-4.347,0-8.781,3.05-9.972,7.041l-1.673,5.605
			h54.686L75.527,10.809z"/>
	</g>
</g>
<g id="Rounded_Rectangle_2" opacity="0.6">
	<g>
		<path fill="#ACAAA0" d="M54.742,6.93h-9.484c-1.746,0-3.161,1.415-3.161,3.161s1.416,3.161,3.161,3.161h9.484
			c1.746,0,3.162-1.416,3.162-3.161C57.904,8.345,56.488,6.93,54.742,6.93z"/>
	</g>
</g>
<g id="Led" opacity="0.6">
	<g>
		<circle fill="#ACAAA0" cx="84.775" cy="30.64" r="4.742"/>
	</g>
</g>
<path fill="#ACAAA0" d="M49.997,32.216c-10.476,0-18.968,8.493-18.968,18.968c0,10.477,8.492,18.969,18.968,18.969
	c10.476,0,18.968-8.492,18.968-18.969C68.965,40.709,60.473,32.216,49.997,32.216z M49.997,65.411
	c-7.857,0-14.226-6.369-14.226-14.227c0-7.857,6.369-14.226,14.226-14.226c7.858,0,14.227,6.369,14.227,14.226
	C64.224,59.042,57.854,65.411,49.997,65.411z"/>
</svg>
