<?xml version="1.0" encoding="utf-8"?>
<!-- Generator: Adobe Illustrator 16.0.0, SVG Export Plug-In . SVG Version: 6.00 Build 0)  -->
<!DOCTYPE svg PUBLIC "-//W3C//DTD SVG 1.1//EN" "http://www.w3.org/Graphics/SVG/1.1/DTD/svg11.dtd">
<svg version="1.1" id="Layer_1" xmlns="http://www.w3.org/2000/svg" xmlns:xlink="http://www.w3.org/1999/xlink" x="0px" y="0px"
	 width="100px" height="100px" viewBox="0 0 100 100" enable-background="new 0 0 100 100" xml:space="preserve">
<g id="Body">
	<g>
		<path fill-rule="evenodd" clip-rule="evenodd" fill="#D4D4CB" d="M91.098,26.414H8.903C4.538,26.414,1,29.952,1,34.317v52.162
			c0,4.365,3.538,7.903,7.903,7.903h82.195c4.365,0,7.902-3.538,7.902-7.903V34.317C99,29.952,95.463,26.414,91.098,26.414z"/>
	</g>
</g>
<g id="Body_2">
	<g>
		<path fill-rule="evenodd" clip-rule="evenodd" fill="#ECEAE0" d="M75.528,20.809c-1.189-3.99-5.626-7.041-9.973-7.041H34.161
			c-4.347,0-8.781,3.05-9.972,7.041l-1.673,5.605h54.686L75.528,20.809z"/>
	</g>
</g>
<g id="Rounded_Rectangle_2" opacity="0.3">
	<g>
		<path fill-rule="evenodd" clip-rule="evenodd" fill="#231F20" d="M54.742,16.93h-9.484c-1.746,0-3.161,1.415-3.161,3.161
			c0,1.746,1.416,3.161,3.161,3.161h9.484c1.747,0,3.162-1.416,3.162-3.161C57.904,18.345,56.489,16.93,54.742,16.93z"/>
	</g>
</g>
<g id="Shadow_2_" opacity="0.0902">
	<g>
		<circle fill-rule="evenodd" clip-rule="evenodd" cx="50" cy="70.672" r="18.968"/>
	</g>
</g>
<g id="Ellipse_1">
	<g>
		<circle fill-rule="evenodd" clip-rule="evenodd" fill="#4E4C4B" cx="50" cy="61.188" r="18.968"/>
	</g>
</g>
<g id="Ellipse_1_copy">
	<g>
		<circle fill-rule="evenodd" clip-rule="evenodd" fill="#FFFFFF" cx="50" cy="61.188" r="14.226"/>
	</g>
</g>
<g id="Ellipse_1_copy_2">
	<g>
		<circle fill-rule="evenodd" clip-rule="evenodd" fill="#B1B0A8" cx="50" cy="61.188" r="11.065"/>
	</g>
</g>
<g id="Ellipse_1_copy_3">
	<g>
		<circle fill-rule="evenodd" clip-rule="evenodd" fill="#D4D4CB" cx="50" cy="61.188" r="6.323"/>
	</g>
</g>
<g id="Shining" opacity="0.502">
	<g>
		<circle fill-rule="evenodd" clip-rule="evenodd" fill="#FFFFFF" cx="46.048" cy="55.656" r="7.113"/>
	</g>
</g>
<g id="Led">
	<g>
		<circle fill-rule="evenodd" clip-rule="evenodd" fill="#FFFFFF" cx="84.775" cy="40.64" r="4.742"/>
	</g>
</g>
</svg>
