<?xml version="1.0" encoding="utf-8"?>
<!-- Generator: Adobe Illustrator 16.0.0, SVG Export Plug-In . SVG Version: 6.00 Build 0)  -->
<!DOCTYPE svg PUBLIC "-//W3C//DTD SVG 1.1//EN" "http://www.w3.org/Graphics/SVG/1.1/DTD/svg11.dtd">
<svg version="1.1" id="Layer_1" xmlns="http://www.w3.org/2000/svg" xmlns:xlink="http://www.w3.org/1999/xlink" x="0px" y="0px"
	 width="100px" height="100px" viewBox="0 0 100 100" enable-background="new 0 0 100 100" xml:space="preserve">
<g id="Shadow" opacity="0.302">
	<g>
		<path fill-rule="evenodd" clip-rule="evenodd" d="M93.549,3.226H6.452C2.889,3.226,0,6.115,0,9.677v83.872
			C0,97.111,2.889,100,6.452,100h87.097c3.562,0,6.451-2.889,6.451-6.451V9.677C100,6.115,97.111,3.226,93.549,3.226z"/>
	</g>
</g>
<g id="Background_2_">
	<g>
		<path fill-rule="evenodd" clip-rule="evenodd" fill="#ECEAE0" d="M93.549,0H6.452C2.889,0,0,2.889,0,6.452V88.71c0,0,0,0,0,0.001
			v1.611c0,3.563,2.889,6.452,6.452,6.452h87.097c3.562,0,6.451-2.889,6.451-6.452V6.452C100,2.889,97.111,0,93.549,0z"/>
	</g>
</g>
<g id="Sky">
	<g>
		<path fill-rule="evenodd" clip-rule="evenodd" fill="#4E4C4B" d="M88.71,6.452H11.291c-2.672,0-4.839,2.166-4.839,4.839v46.774
			h87.097V11.291C93.549,8.617,91.381,6.452,88.71,6.452z"/>
	</g>
</g>
<g id="Mountain__x26__griund">
	<g>
		<path fill-rule="evenodd" clip-rule="evenodd" fill="#4E4C4B" d="M57.712,58.064L35.301,32.242L12.89,58.064H6.452v11.291
			c0,2.672,2.167,4.838,4.839,4.838H88.71c2.671,0,4.839-2.166,4.839-4.838V58.064H57.712z"/>
	</g>
</g>
<rect x="6.452" y="23.242" fill-rule="evenodd" clip-rule="evenodd" fill="#4E4C4B" width="87.097" height="42.081"/>
<g>
	<g>
		<path fill="#ECEAE0" d="M81.5,36.422h-63c0,13.678,8.744,25.293,20.936,29.641v4.441h21.13v-4.441
			C72.759,61.715,81.5,50.1,81.5,36.422z"/>
	</g>
</g>
<g>
	<path fill="#ECEAE0" d="M41.552,30.335c0.285,0.312,0.639,0.518,0.998,0.629c0.36,0.111,0.728,0.153,1.086,0.111
		c-0.667-0.226-1.276-0.611-1.532-1.133c-0.267-0.506-0.18-1.102,0.018-1.679c0.207-0.583,0.529-1.154,0.886-1.708
		c0.358-0.555,0.756-1.097,1.175-1.629c0.437-0.568,0.851-1.167,1.208-1.811c0.351-0.645,0.659-1.333,0.807-2.108
		c0.071-0.383,0.105-0.791,0.035-1.204c-0.064-0.411-0.237-0.825-0.518-1.139c-0.281-0.311-0.634-0.518-0.995-0.628
		c-0.361-0.111-0.729-0.15-1.085-0.111c0.665,0.225,1.277,0.611,1.531,1.135c0.268,0.506,0.178,1.1-0.021,1.678
		c-0.207,0.584-0.526,1.154-0.883,1.707c-0.358,0.555-0.757,1.098-1.174,1.631c-0.437,0.57-0.851,1.165-1.207,1.809
		c-0.352,0.645-0.661,1.336-0.807,2.107c-0.073,0.383-0.105,0.793-0.037,1.204C41.107,29.609,41.277,30.022,41.552,30.335z"/>
	<path fill="#ECEAE0" d="M48.821,26.875c0.282,0.309,0.637,0.518,0.995,0.627c0.364,0.113,0.732,0.152,1.087,0.113
		c-0.665-0.225-1.277-0.613-1.53-1.132c-0.27-0.511-0.181-1.103,0.02-1.683c0.202-0.582,0.526-1.153,0.882-1.705
		c0.361-0.556,0.758-1.099,1.176-1.632c0.439-0.567,0.85-1.165,1.207-1.809c0.35-0.646,0.662-1.336,0.811-2.109
		c0.07-0.383,0.102-0.79,0.031-1.205c-0.064-0.409-0.238-0.825-0.516-1.138c-0.28-0.31-0.637-0.521-0.994-0.631
		c-0.361-0.108-0.73-0.148-1.086-0.108c0.664,0.226,1.275,0.611,1.529,1.133c0.266,0.511,0.18,1.1-0.021,1.681
		c-0.206,0.58-0.525,1.152-0.883,1.705c-0.357,0.557-0.753,1.098-1.172,1.632c-0.438,0.568-0.851,1.167-1.208,1.811
		c-0.348,0.641-0.658,1.333-0.807,2.106c-0.07,0.383-0.102,0.793-0.034,1.203C48.373,26.146,48.544,26.563,48.821,26.875z"/>
	<path fill="#ECEAE0" d="M56.283,30.335c0.281,0.312,0.635,0.518,0.996,0.629c0.359,0.111,0.728,0.153,1.082,0.111
		c-0.664-0.226-1.273-0.611-1.531-1.133c-0.266-0.506-0.178-1.102,0.021-1.679c0.207-0.583,0.53-1.154,0.885-1.708
		c0.359-0.555,0.755-1.097,1.174-1.629c0.439-0.568,0.853-1.167,1.206-1.811c0.353-0.645,0.665-1.333,0.811-2.108
		c0.073-0.383,0.104-0.791,0.036-1.204c-0.068-0.411-0.24-0.825-0.515-1.139c-0.284-0.311-0.637-0.518-0.998-0.628
		c-0.36-0.111-0.73-0.15-1.088-0.111c0.668,0.225,1.279,0.611,1.53,1.135c0.271,0.506,0.179,1.1-0.019,1.678
		c-0.206,0.584-0.526,1.154-0.883,1.707c-0.36,0.555-0.759,1.098-1.172,1.631c-0.44,0.57-0.855,1.165-1.207,1.809
		c-0.354,0.645-0.664,1.336-0.812,2.107c-0.071,0.383-0.103,0.793-0.032,1.204C55.834,29.609,56.002,30.022,56.283,30.335z"/>
</g>
</svg>
