<?xml version="1.0" encoding="utf-8"?>
<!-- Generator: Adobe Illustrator 16.0.0, SVG Export Plug-In . SVG Version: 6.00 Build 0)  -->
<!DOCTYPE svg PUBLIC "-//W3C//DTD SVG 1.1//EN" "http://www.w3.org/Graphics/SVG/1.1/DTD/svg11.dtd">
<svg version="1.1" id="Layer_1" xmlns="http://www.w3.org/2000/svg" xmlns:xlink="http://www.w3.org/1999/xlink" x="0px" y="0px"
	 width="100px" height="100px" viewBox="0 0 100 100" enable-background="new 0 0 100 100" xml:space="preserve">
<g id="Body">
	<g>
		<path fill="#7B7773" d="M91.098,16.414H8.903C4.538,16.414,1,19.952,1,24.317v52.162c0,4.365,3.538,7.903,7.903,7.903h82.195
			c4.365,0,7.902-3.538,7.902-7.903V24.317C99,19.952,95.463,16.414,91.098,16.414z"/>
	</g>
</g>
<g id="Body_2">
	<g>
		<path fill="#8F8C89" d="M75.527,10.809c-1.188-3.99-5.625-7.041-9.974-7.041H34.161c-4.347,0-8.781,3.05-9.972,7.041l-1.673,5.605
			h54.686L75.527,10.809z"/>
	</g>
</g>
<g id="Rounded_Rectangle_2">
	<g>
		<path fill="#7B7773" d="M54.742,6.93h-9.484c-1.746,0-3.161,1.415-3.161,3.161s1.416,3.161,3.161,3.161h9.484
			c1.746,0,3.162-1.416,3.162-3.161C57.904,8.345,56.488,6.93,54.742,6.93z"/>
	</g>
</g>
<g id="Shadow_2_" opacity="0.0902">
	<g>
		<circle cx="50" cy="60.672" r="18.968"/>
	</g>
</g>
<g id="Ellipse_1">
	<g>
		<circle fill="#4B4844" cx="50" cy="51.188" r="18.968"/>
	</g>
</g>
<g id="Ellipse_1_copy">
	<g>
		<circle fill="#B9B2AD" cx="50" cy="51.188" r="14.226"/>
	</g>
</g>
<g id="Ellipse_1_copy_2">
	<g>
		<circle fill="#B9B2AD" cx="50" cy="51.188" r="11.065"/>
	</g>
</g>
<g id="Ellipse_1_copy_3">
	<g>
		<circle fill="#B9B2AD" cx="50" cy="51.188" r="6.323"/>
	</g>
</g>
<g id="Shining" opacity="0.3">
	<g>
		<circle fill="#ECEAE0" cx="46.048" cy="45.656" r="7.113"/>
	</g>
</g>
<g id="Led">
	<g>
		<circle fill="#ECEAE0" cx="84.775" cy="30.64" r="4.742"/>
	</g>
</g>
</svg>
