<?xml version="1.0" encoding="utf-8"?>
<!-- Generator: Adobe Illustrator 16.0.0, SVG Export Plug-In . SVG Version: 6.00 Build 0)  -->
<!DOCTYPE svg PUBLIC "-//W3C//DTD SVG 1.1//EN" "http://www.w3.org/Graphics/SVG/1.1/DTD/svg11.dtd">
<svg version="1.1" id="Layer_1" xmlns="http://www.w3.org/2000/svg" xmlns:xlink="http://www.w3.org/1999/xlink" x="0px" y="0px"
	 width="300px" height="100px" viewBox="0 0 300 100" enable-background="new 0 0 300 100" xml:space="preserve">
<g>
	<g>
		<path fill="#EDEBCB" d="M10,51.836c0-0.305,0.008-0.602,0.031-0.885c0.018-0.286,0.027-0.539,0.027-0.76c0-0.22,0-0.35,0-0.394
			c0-0.044,0.028-0.152,0.092-0.33c0.058-0.177,0.117-0.375,0.173-0.592c0.06-0.219,0.121-0.418,0.179-0.591
			c0.062-0.178,0.087-0.288,0.087-0.332c0.041-0.305,0.11-0.952,0.208-1.938c0.099-0.989,0.21-2.063,0.327-3.226
			c0.117-1.164,0.238-2.294,0.357-3.39c0.115-1.095,0.195-1.886,0.235-2.369c0.119-1.271,0.486-2.466,1.096-3.586
			c0.613-1.119,1.392-2.093,2.339-2.926c0.948-0.835,1.992-1.493,3.14-1.977c1.145-0.481,2.309-0.723,3.494-0.723
			c0.711,0,1.412,0.088,2.103,0.264c0.688,0.175,1.319,0.448,1.893,0.82c0.572,0.375,1.027,0.88,1.364,1.514
			c0.333,0.639,0.502,1.417,0.502,2.337c0,0.615-0.03,1.13-0.089,1.546c-0.058,0.419-0.228,0.912-0.502,1.482
			c-0.199,0.265-0.557,0.68-1.068,1.25c-0.513,0.572-1.064,1.183-1.655,1.843c-0.594,0.661-1.148,1.273-1.661,1.84
			c-0.514,0.573-0.887,0.97-1.123,1.187c-0.043,0.044-0.21,0.122-0.505,0.229c-0.296,0.109-0.611,0.265-0.947,0.463
			c-0.335,0.196-0.642,0.417-0.917,0.656c-0.277,0.243-0.416,0.495-0.416,0.756c0,0.046,0.008,0.102,0.03,0.166
			c0.021,0.065,0.028,0.121,0.028,0.167c0.749,0.611,1.49,1.108,2.222,1.478c0.73,0.374,1.461,0.724,2.19,1.053
			c0.732,0.328,1.451,0.668,2.162,1.019c0.711,0.354,1.443,0.791,2.192,1.316c1.103,0.132,2.112,0.228,3.021,0.297
			c0.906,0.067,1.775,0.131,2.604,0.196c0.83,0.067,1.659,0.111,2.488,0.133c0.829,0.023,1.737,0.033,2.725,0.033
			c1.064,0,2.072-0.122,3.019-0.362c0.95-0.241,1.937-0.364,2.961-0.364c0.475,0,0.94,0.025,1.394,0.066
			c0.453,0.043,0.777,0.442,0.978,1.185c0.117,0.526-0.042,1.054-0.475,1.579c-0.433,0.526-0.956,0.997-1.569,1.417
			c-0.611,0.419-1.243,0.745-1.895,0.986c-0.652,0.243-1.155,0.361-1.509,0.361c-1.229,0-2.695-0.064-4.416-0.198
			c-1.716-0.132-3.475-0.33-5.269-0.592c-1.797-0.263-3.535-0.592-5.211-0.986c-1.678-0.396-3.11-0.836-4.296-1.316
			c-0.392-0.174-0.825-0.458-1.3-0.854c-0.473-0.397-0.947-0.801-1.422-1.218c-0.473-0.416-0.948-0.792-1.422-1.124
			c-0.473-0.324-0.931-0.49-1.363-0.49c-0.119,0-0.287,0.079-0.502,0.231c-0.219,0.152-0.329,0.273-0.329,0.36v9.74
			c0,0.352-0.095,0.613-0.293,0.791c-0.198,0.175-0.435,0.295-0.712,0.359c-0.275,0.067-0.555,0.109-0.827,0.133
			c-0.277,0.018-0.496,0.033-0.652,0.033c-0.75,0-1.344-0.255-1.778-0.761c-0.434-0.503-0.768-1.115-1.007-1.838
			c-0.235-0.726-0.38-1.49-0.444-2.304C10.031,53.887,10,53.177,10,52.56C10,52.384,10,52.145,10,51.836z M18.856,32.917
			c-0.693,0.55-1.266,1.23-1.719,2.04c-0.457,0.813-0.782,1.69-0.981,2.634c-0.195,0.945-0.295,1.831-0.295,2.666
			c0.71,0,1.491-0.174,2.341-0.525c0.85-0.352,1.639-0.834,2.368-1.447c0.732-0.618,1.354-1.318,1.867-2.109
			c0.511-0.789,0.769-1.619,0.769-2.502c0-0.438-0.238-0.808-0.709-1.117c-0.477-0.305-0.87-0.459-1.184-0.459
			C20.365,32.096,19.544,32.369,18.856,32.917z"/>
		<path fill="#EDEBCB" d="M46.301,49.896c0.275-1.075,0.653-2.193,1.128-3.356c0.472-1.158,1.035-2.313,1.687-3.455
			c0.651-1.14,1.372-2.16,2.162-3.06c0.791-0.897,1.608-1.621,2.456-2.171c0.848-0.55,1.727-0.823,2.638-0.823
			c0.154,0,0.475,0.133,0.949,0.396c0.472,0.263,0.993,0.571,1.566,0.92c0.573,0.354,1.134,0.693,1.688,1.021
			c0.555,0.328,0.966,0.561,1.246,0.69c0.077,0.046,0.186,0.142,0.323,0.297c0.14,0.156,0.229,0.253,0.267,0.296
			c0,0.305-0.01,0.845-0.029,1.609c-0.019,0.771-0.028,1.572-0.028,2.405c0,0.833,0.01,1.623,0.028,2.368
			c0.02,0.749,0.029,1.271,0.029,1.579c0,0.352,0.018,0.782,0.06,1.284c0.038,0.504,0.119,1.019,0.236,1.546
			c0.118,0.525,0.274,1.032,0.474,1.514c0.198,0.483,0.476,0.854,0.828,1.118c0.199,0,0.614,0.016,1.244,0.032
			c0.634,0.023,1.05,0.03,1.248,0.03c0.827,0,1.576-0.129,2.251-0.392c0.669-0.263,1.29-0.547,1.864-0.858
			c0.57-0.302,1.084-0.59,1.538-0.851c0.456-0.266,0.86-0.396,1.217-0.396c0.312,0,0.491,0.221,0.531,0.657
			c0.04,0.439,0.06,0.749,0.06,0.919c0,0.97-0.288,1.815-0.859,2.542c-0.573,0.719-1.283,1.324-2.131,1.804
			c-0.849,0.481-1.748,0.843-2.696,1.085c-0.948,0.24-1.774,0.361-2.485,0.361c-1.03,0-1.866-0.318-2.52-0.952
			c-0.652-0.634-1.243-1.346-1.776-2.14c-0.531-0.787-1.038-1.499-1.51-2.138c-0.474-0.638-1.045-0.954-1.716-0.954
			c-0.557,0-1.157,0.449-1.806,1.351c-0.652,0.897-1.334,1.885-2.044,2.96c-0.709,1.073-1.442,2.062-2.193,2.961
			c-0.751,0.896-1.541,1.349-2.368,1.349c-0.829,0-1.5-0.326-2.013-0.988c-0.515-0.655-0.917-1.448-1.214-2.37
			c-0.296-0.919-0.494-1.872-0.593-2.859c-0.1-0.987-0.148-1.83-0.148-2.534C45.889,51.902,46.025,50.97,46.301,49.896z
			 M49.885,55.757c0.099,0.191,0.423,0.446,0.98,0.751c1.655-1.491,2.998-3.101,4.025-4.836c1.025-1.731,1.538-3.785,1.538-6.15
			c0-0.088,0-0.264,0-0.53c0-0.304-0.01-0.625-0.028-0.952c-0.022-0.329-0.029-0.625-0.029-0.887c0-0.309,0-0.53,0-0.659
			c-0.079-0.088-0.26-0.208-0.536-0.364c-0.274-0.152-0.472-0.229-0.592-0.229c-0.945,0-1.766,0.552-2.458,1.644
			c-0.69,1.098-1.264,2.371-1.717,3.819c-0.452,1.446-0.79,2.883-1.006,4.31c-0.217,1.428-0.325,2.464-0.325,3.126
			C49.738,55.235,49.787,55.552,49.885,55.757z"/>
		<path fill="#EDEBCB" d="M74.64,56.639c0.059-0.174,0.12-0.374,0.179-0.592c0.059-0.217,0.119-0.413,0.176-0.591
			c0.059-0.174,0.091-0.285,0.091-0.328c0.315-1.847,0.572-3.489,0.768-4.937c0.198-1.447,0.345-2.873,0.444-4.276
			c0.098-1.403,0.139-2.863,0.121-4.375c-0.022-1.515-0.09-3.279-0.21-5.301c0.198-0.479,0.416-0.809,0.653-0.984
			c0.236-0.175,0.57-0.263,1.006-0.263c0.396,0,0.74,0.152,1.035,0.459c0.296,0.308,0.562,0.657,0.8,1.053
			c0.237,0.395,0.463,0.799,0.683,1.218c0.216,0.416,0.462,0.737,0.738,0.954c0.395-0.349,0.752-0.8,1.068-1.35
			c0.313-0.548,0.651-1.087,1.005-1.614c0.355-0.524,0.741-0.982,1.156-1.376c0.416-0.397,0.896-0.595,1.45-0.595
			c0.553,0,1.033,0.198,1.45,0.595c0.416,0.394,0.769,0.888,1.068,1.479c0.295,0.589,0.524,1.21,0.68,1.841
			c0.156,0.639,0.277,1.176,0.354,1.614c0.042,0.265,0.061,0.724,0.061,1.382c0,0.615,0,1.293,0,2.039c0,0.701,0,1.361,0,1.976
			s-0.019,1.054-0.061,1.316c0.08,0.349,0.24,0.558,0.477,0.625c0.237,0.064,0.472,0.099,0.709,0.099
			c0.078,0,0.168-0.01,0.266-0.035c0.102-0.021,0.17-0.049,0.208-0.099l5.98-12.765c0.199-0.35,0.494-0.646,0.889-0.89
			c0.395-0.239,0.75-0.361,1.068-0.361c0.592,0,1.015,0.263,1.27,0.788c0.259,0.522,0.425,1.136,0.505,1.833
			c0.08,0.697,0.118,1.395,0.118,2.093c0,0.657,0,1.115,0,1.378c0.041,0.698,0.108,1.766,0.209,3.207
			c0.096,1.44,0.208,2.932,0.325,4.486c0.118,1.547,0.237,2.978,0.355,4.288c0.119,1.31,0.196,2.16,0.236,2.551
			c0,0.086,0.031,0.249,0.092,0.491c0.056,0.241,0.115,0.494,0.178,0.752c0.059,0.262,0.117,0.516,0.175,0.753
			c0.06,0.241,0.091,0.384,0.091,0.43v0.978c0,0.568-0.068,1.059-0.207,1.476c-0.142,0.416-0.505,0.621-1.097,0.621
			c-0.238,0-0.543-0.053-0.919-0.166c-0.374-0.11-0.75-0.27-1.124-0.49c-0.376-0.219-0.69-0.484-0.948-0.79
			c-0.258-0.306-0.383-0.657-0.383-1.053V42.822l-0.832-0.592c-0.512,0.35-1.064,1.009-1.657,1.973
			c-0.592,0.967-1.195,2.063-1.805,3.292c-0.612,1.229-1.243,2.499-1.896,3.814c-0.651,1.315-1.274,2.524-1.865,3.62
			c-0.596,1.101-1.157,1.998-1.692,2.697c-0.53,0.701-1.015,1.053-1.449,1.053c-0.315,0-0.593-0.043-0.829-0.129
			c-0.236-0.089-0.515-0.264-0.829-0.523c0-0.219-0.01-0.665-0.029-1.34c-0.02-0.672-0.031-1.117-0.031-1.335
			c0-2.176,0.069-4.312,0.208-6.399c0.138-2.087,0.206-4.22,0.206-6.396c-0.827,0-1.479,0.428-1.952,1.282
			c-0.474,0.858-0.86,1.942-1.157,3.261c-0.295,1.313-0.563,2.717-0.799,4.208c-0.233,1.495-0.523,2.894-0.855,4.212
			c-0.339,1.315-0.755,2.403-1.245,3.26c-0.494,0.853-1.175,1.281-2.043,1.281c-0.235,0-0.513-0.098-0.831-0.3
			c-0.314-0.194-0.611-0.447-0.887-0.756s-0.514-0.646-0.712-1.021c-0.199-0.369-0.295-0.711-0.295-1.019
			C74.552,56.928,74.583,56.816,74.64,56.639z"/>
		<path fill="#EDEBCB" d="M105.049,49.896c0.278-1.075,0.654-2.193,1.128-3.356c0.473-1.158,1.035-2.313,1.685-3.455
			c0.651-1.14,1.375-2.16,2.163-3.06c0.788-0.897,1.607-1.621,2.459-2.171c0.845-0.55,1.725-0.823,2.636-0.823
			c0.156,0,0.473,0.133,0.947,0.396c0.473,0.263,0.995,0.571,1.567,0.92c0.573,0.354,1.137,0.693,1.688,1.021
			c0.554,0.328,0.968,0.561,1.246,0.69c0.076,0.046,0.186,0.142,0.324,0.297c0.139,0.156,0.225,0.253,0.267,0.296
			c0,0.305-0.012,0.845-0.03,1.609c-0.021,0.771-0.029,1.572-0.029,2.405c0,0.833,0.008,1.623,0.029,2.368
			c0.018,0.749,0.03,1.271,0.03,1.579c0,0.352,0.018,0.782,0.061,1.284c0.038,0.504,0.117,1.019,0.236,1.546
			c0.117,0.525,0.274,1.032,0.474,1.514c0.197,0.483,0.474,0.854,0.829,1.118c0.198,0,0.607,0.016,1.242,0.032
			c0.633,0.023,1.047,0.03,1.243,0.03c0.831,0,1.579-0.129,2.251-0.392c0.671-0.263,1.292-0.547,1.864-0.858
			c0.575-0.302,1.085-0.59,1.542-0.851c0.451-0.266,0.859-0.396,1.212-0.396c0.315,0,0.495,0.221,0.534,0.657
			c0.04,0.439,0.062,0.749,0.062,0.919c0,0.97-0.286,1.815-0.86,2.542c-0.573,0.719-1.284,1.324-2.132,1.804
			c-0.848,0.481-1.748,0.843-2.694,1.085c-0.947,0.24-1.777,0.361-2.487,0.361c-1.027,0-1.864-0.318-2.516-0.952
			c-0.652-0.634-1.243-1.346-1.778-2.14c-0.533-0.787-1.035-1.499-1.51-2.138c-0.471-0.638-1.045-0.954-1.713-0.954
			c-0.557,0-1.157,0.449-1.81,1.351c-0.65,0.897-1.331,1.885-2.044,2.96c-0.71,1.073-1.44,2.062-2.19,2.961
			c-0.75,0.896-1.537,1.349-2.367,1.349c-0.83,0-1.503-0.326-2.015-0.988c-0.513-0.655-0.917-1.448-1.213-2.37
			c-0.295-0.919-0.496-1.872-0.596-2.859c-0.097-0.987-0.146-1.83-0.146-2.534C104.636,51.902,104.774,50.97,105.049,49.896z
			 M108.634,55.757c0.099,0.191,0.424,0.446,0.976,0.751c1.658-1.491,3.001-3.101,4.026-4.836c1.027-1.731,1.542-3.785,1.542-6.15
			c0-0.088,0-0.264,0-0.53c0-0.304-0.01-0.625-0.028-0.952c-0.019-0.329-0.029-0.625-0.029-0.887c0-0.309,0-0.53,0-0.659
			c-0.079-0.088-0.258-0.208-0.535-0.364c-0.276-0.152-0.472-0.229-0.592-0.229c-0.947,0-1.768,0.552-2.457,1.644
			c-0.692,1.098-1.265,2.371-1.719,3.819c-0.456,1.446-0.791,2.883-1.008,4.31c-0.215,1.428-0.321,2.464-0.321,3.126
			C108.488,55.235,108.536,55.552,108.634,55.757z"/>
		<path fill="#EDEBCB" d="M178.425,44.764c0.115-0.437,0.43-1.031,0.949-1.775l1.123-14.632c0.081-0.703,0.355-1.097,0.827-1.187
			c0.48-0.086,0.905-0.129,1.307-0.129c0.67,0,1.223,0.075,1.655,0.229c0.438,0.155,0.651,0.67,0.651,1.547
			c0,1.099-0.086,2.185-0.265,3.262c-0.176,1.079-0.387,2.155-0.621,3.228c-0.238,1.077-0.444,2.167-0.62,3.266
			c-0.182,1.098-0.27,2.196-0.27,3.295c0,0.22,0.005,0.546,0.032,0.985c0.018,0.441,0.026,0.685,0.026,0.725l1.126,1.185
			c0.829-0.131,1.535-0.26,2.132-0.393c0.594-0.129,1.194-0.272,1.808-0.427c0.609-0.156,1.119-0.276,1.509-0.365
			c0.943-0.22,1.651-0.59,2.103-1.116c0.458-0.529,0.68-1.341,0.68-2.443c0-2.767-0.199-5.533-0.585-8.302
			c-0.4-2.768-0.598-5.556-0.598-8.369c0-0.924,0.166-1.647,0.503-2.174c0.333-0.53,0.938-0.791,1.808-0.791
			c0.156,0,0.353,0,0.587,0c0.239,0,0.48,0.042,0.715,0.131c0.237,0.088,0.434,0.22,0.591,0.397c0.16,0.174,0.236,0.413,0.236,0.724
			V39.96c0,0.395,0.121,0.724,0.355,0.991c0.236,0.261,0.489,0.527,0.741,0.788c0.259,0.266,0.507,0.537,0.744,0.824
			c0.234,0.284,0.353,0.628,0.353,1.022s-0.225,0.855-0.684,1.385c-0.453,0.527-0.782,0.878-0.976,1.051
			c0,0.355,0.009,0.958,0.028,1.816c0.021,0.858,0.029,1.792,0.029,2.802c0,0.965-0.009,1.878-0.029,2.732
			c-0.02,0.857-0.028,1.464-0.028,1.814c-0.036,0.617-0.076,1.152-0.121,1.617c-0.04,0.458-0.123,0.846-0.262,1.153
			c-0.138,0.306-0.355,0.538-0.654,0.688c-0.292,0.155-0.697,0.232-1.213,0.232c-0.75,0-1.394-0.297-1.923-0.892
			c-0.532-0.59-0.801-1.324-0.801-2.201c0-0.394,0.09-0.746,0.269-1.054c0.177-0.309,0.373-0.596,0.59-0.854
			c0.215-0.264,0.418-0.541,0.597-0.823c0.172-0.286,0.262-0.604,0.262-0.957c0-0.042,0.009-0.282,0.03-0.722
			c0.019-0.438,0-0.931-0.055-1.479c-0.065-0.548-0.178-1.075-0.331-1.578c-0.161-0.506-0.414-0.869-0.764-1.085h-0.239
			c-0.438,0-1.146,0.086-2.134,0.263c-0.992,0.176-1.995,0.426-3.022,0.755c-1.029,0.331-1.937,0.713-2.728,1.151
			c-0.787,0.439-1.183,0.899-1.183,1.383v0.723c0,0.221,0.032,0.589,0.094,1.117c0.05,0.524,0.121,1.076,0.173,1.646
			c0.064,0.572,0.115,1.12,0.181,1.644c0.061,0.527,0.087,0.878,0.087,1.053c0.201,0.659,0.503,1.032,0.921,1.117
			c0.411,0.092,0.836,0.112,1.271,0.068c0.438-0.047,0.819-0.021,1.159,0.067c0.33,0.087,0.5,0.478,0.5,1.183
			c0,0.528-0.11,1.052-0.329,1.58c-0.219,0.524-0.5,0.998-0.861,1.416c-0.351,0.412-0.76,0.758-1.209,1.019
			c-0.451,0.263-0.913,0.393-1.389,0.393c-0.678,0-1.263-0.336-1.774-1.021c-0.519-0.68-0.963-1.56-1.341-2.636
			c-0.377-1.074-0.679-2.272-0.916-3.589c-0.234-1.318-0.436-2.613-0.591-3.889c-0.159-1.273-0.267-2.46-0.322-3.558
			c-0.06-1.1-0.092-1.958-0.092-2.571C178.248,45.802,178.308,45.208,178.425,44.764z"/>
		<path fill="#EDEBCB" d="M200.753,49.169c0.355-1.337,0.826-2.574,1.421-3.716c0.593-1.139,1.293-2.257,2.103-3.355
			c0.809-1.095,1.666-2.304,2.571-3.622c0.2-0.304,0.406-0.646,0.596-1.016c0.194-0.375,0.409-0.713,0.621-1.023
			c0.215-0.309,0.463-0.57,0.745-0.791c0.268-0.218,0.629-0.326,1.061-0.326c0.75,0,1.541,0.251,2.372,0.756
			c0.829,0.504,1.634,1.15,2.424,1.94c0.791,0.792,1.544,1.7,2.25,2.732c0.711,1.028,1.339,2.082,1.87,3.157
			c0.533,1.075,0.956,2.115,1.271,3.125c0.319,1.009,0.471,1.908,0.471,2.699c0,1.623-0.332,3.028-1,4.21
			c-0.675,1.187-1.506,2.25-2.49,3.192c-0.983,0.944-2.049,1.807-3.195,2.597c-1.148,0.795-2.196,1.604-3.136,2.438h-6.043
			c-0.791,0-1.475-0.317-2.045-0.954c-0.576-0.637-1.039-1.393-1.392-2.273c-0.353-0.873-0.612-1.785-0.771-2.728
			c-0.161-0.944-0.241-1.721-0.241-2.336C200.215,52.077,200.391,50.51,200.753,49.169z M204.896,57.658
			c0.553,0.595,1.281,0.886,2.197,0.886c1.183,0,2.346-0.236,3.492-0.722c1.146-0.482,2.169-1.151,3.074-2.006
			c0.911-0.855,1.653-1.875,2.22-3.057c0.57-1.187,0.865-2.458,0.865-3.819c0-0.571-0.137-1.283-0.389-2.14
			c-0.258-0.854-0.613-1.677-1.065-2.464c-0.459-0.794-0.977-1.472-1.572-2.042c-0.587-0.568-1.241-0.853-1.955-0.853
			c-0.076,0-0.255,0.02-0.528,0.062c-2.571,1.405-4.402,3.202-5.511,5.397c-1.105,2.191-1.658,4.867-1.658,8.027
			C204.065,56.16,204.343,57.067,204.896,57.658z"/>
		<path fill="#EDEBCB" d="M234.298,51.144c-0.611,0.9-1.248,1.887-1.923,2.962c-0.67,1.078-1.426,2.065-2.274,2.962
			c-0.852,0.897-1.832,1.348-2.933,1.348c-0.987,0-1.776-0.238-2.368-0.72c-0.593-0.483-1.048-1.119-1.365-1.91
			c-0.314-0.79-0.522-1.666-0.616-2.636c-0.104-0.962-0.154-1.947-0.154-2.958c0-1.008,0.021-1.962,0.056-2.862
			c0.045-0.902,0.045-1.654,0-2.272c0-0.041-0.026-0.152-0.085-0.327c-0.057-0.175-0.118-0.372-0.177-0.592
			c-0.062-0.218-0.115-0.418-0.179-0.594c-0.062-0.171-0.089-0.283-0.089-0.327c0-0.045,0.027-0.153,0.089-0.329
			c0.063-0.178,0.117-0.371,0.179-0.593c0.059-0.218,0.12-0.417,0.177-0.591c0.059-0.175,0.085-0.286,0.085-0.329
			c0.045-0.175,0.099-0.494,0.152-0.956c0.058-0.459,0.118-0.953,0.179-1.48c0.06-0.526,0.109-1.019,0.149-1.478
			c0.035-0.465,0.059-0.782,0.059-0.957c0.115-0.351,0.285-0.549,0.502-0.592c0.217-0.043,0.446-0.064,0.679-0.064
			c0.36,0,0.693,0.122,1.009,0.361c0.32,0.24,0.596,0.549,0.833,0.92c0.232,0.375,0.428,0.781,0.589,1.217
			c0.161,0.441,0.234,0.835,0.234,1.188c0,0.087-0.026,0.315-0.089,0.689c-0.056,0.372-0.12,0.757-0.172,1.152
			c-0.062,0.391-0.121,0.779-0.184,1.151c-0.058,0.373-0.087,0.603-0.087,0.69c0,0.044,0,0.173,0,0.396
			c0,0.219-0.011,0.47-0.031,0.754c-0.021,0.288-0.028,0.582-0.028,0.891c0,0.264,0,0.484,0,0.657c0,0.482-0.025,1.151-0.088,2.006
			c-0.062,0.855-0.062,1.711,0,2.568c0.062,0.856,0.217,1.588,0.47,2.203c0.259,0.613,0.708,0.922,1.333,0.922
			c0.402,0,0.804-0.229,1.218-0.691c0.413-0.462,0.8-0.986,1.156-1.577c0.35-0.596,0.656-1.154,0.919-1.679
			c0.253-0.529,0.422-0.857,0.496-0.987c0.713-1.096,1.388-2.235,2.013-3.42c0.637-1.185,1.171-2.414,1.6-3.685
			c0.438-1.273,0.735-2.588,0.89-3.949c0.165-1.362,0.12-2.74-0.114-4.146c0.194-0.659,0.482-1.031,0.859-1.119
			c0.374-0.087,0.796-0.132,1.268-0.132c0.439,0,0.845,0.023,1.217,0.067c0.373,0.044,0.72,0.24,1.037,0.589
			c0,0.176,0.011,0.573,0.03,1.184c0.017,0.617,0.029,1.032,0.029,1.253c0,1.269-0.1,2.545-0.292,3.815
			c-0.203,1.272-0.302,2.546-0.302,3.817v0.856c0.04,0.35,0.112,0.919,0.208,1.711c0.094,0.787,0.21,1.597,0.326,2.432
			c0.118,0.836,0.226,1.614,0.328,2.338c0.097,0.723,0.166,1.194,0.207,1.414c0.117,0.614,0.383,1.104,0.798,1.479
			c0.419,0.373,0.905,0.668,1.481,0.89c0.569,0.222,1.142,0.375,1.716,0.46c0.571,0.092,1.081,0.156,1.515,0.198v0.66
			c0,0.482-0.123,0.953-0.364,1.412c-0.23,0.462-0.527,0.868-0.885,1.22c-0.353,0.351-0.76,0.622-1.213,0.817
			c-0.451,0.202-0.92,0.259-1.39,0.166c-1.025-0.174-1.875-0.744-2.551-1.709c-0.668-0.966-1.252-2.007-1.745-3.124
			c-0.493-1.12-0.93-2.13-1.302-3.03c-0.379-0.898-0.765-1.346-1.16-1.346C235.554,49.797,234.91,50.246,234.298,51.144z"/>
		<path fill="#EDEBCB" d="M250.32,55.62c0.474-0.549,1.048-0.822,1.719-0.822c0.115,0,0.285,0.013,0.507,0.031
			c0.212,0.026,0.364,0.036,0.438,0.036c0.04,0,0.141,0.03,0.3,0.096c0.153,0.069,0.323,0.146,0.5,0.231
			c0.181,0.09,0.344,0.153,0.507,0.199c0.152,0.043,0.252,0.064,0.293,0.064c0.276-0.044,0.695-0.165,1.242-0.364
			c0.554-0.196,1.128-0.435,1.713-0.722c0.597-0.281,1.135-0.593,1.604-0.92c0.48-0.328,0.795-0.67,0.944-1.021
			c-0.704-0.964-1.762-1.787-3.165-2.469c-1.398-0.679-2.804-1.356-4.204-2.039c-1.399-0.678-2.623-1.437-3.673-2.269
			c-1.043-0.832-1.571-1.909-1.571-3.224c0-1.142,0.508-2.214,1.514-3.226c1.007-1.007,2.205-1.884,3.585-2.632
			c1.381-0.745,2.786-1.338,4.229-1.776c1.446-0.438,2.582-0.661,3.407-0.661c0.867,0,1.698,0.101,2.491,0.297
			c0.788,0.199,1.482,0.504,2.072,0.922c0.59,0.417,1.065,0.976,1.424,1.678c0.349,0.704,0.527,1.582,0.527,2.633
			c0,0.832-0.034,1.459-0.114,1.876c-0.085,0.415-0.523,0.624-1.303,0.624c-0.085,0-0.219-0.008-0.417-0.033
			c-0.197-0.021-0.334-0.031-0.414-0.031c-0.516-0.656-0.961-1.227-1.338-1.711c-0.373-0.481-0.76-0.877-1.15-1.185
			c-0.396-0.305-0.841-0.526-1.333-0.659c-0.49-0.13-1.094-0.197-1.808-0.197c-0.55,0-1.164,0.047-1.832,0.131
			c-0.675,0.09-1.313,0.266-1.928,0.531c-0.608,0.261-1.122,0.625-1.54,1.084c-0.412,0.458-0.623,1.042-0.623,1.743
			c0,0.745,0.321,1.382,0.945,1.909c0.637,0.527,1.418,1.02,2.339,1.482c0.932,0.458,1.955,0.896,3.056,1.313
			c1.105,0.418,2.122,0.854,3.047,1.315c0.928,0.463,1.707,0.987,2.342,1.576c0.633,0.598,0.947,1.286,0.947,2.077
			c0,0.788-0.248,1.537-0.737,2.236c-0.498,0.704-1.15,1.362-1.954,1.978c-0.812,0.61-1.703,1.16-2.668,1.641
			c-0.967,0.483-1.938,0.9-2.904,1.25c-0.965,0.352-1.861,0.625-2.691,0.823c-0.831,0.198-1.485,0.295-1.958,0.295
			c-0.783,0-1.493-0.129-2.126-0.395c-0.637-0.26-0.952-0.854-0.952-1.775C249.607,56.816,249.845,56.171,250.32,55.62z"/>
		<path fill="#EDEBCB" d="M270.989,54.469h-0.236c-0.121,0.045-0.4,0.145-0.834,0.295c-0.438,0.154-0.708,0.253-0.824,0.296
			c-0.121-0.043-0.293-0.174-0.505-0.393c-0.219-0.219-0.446-0.464-0.682-0.726c-0.234-0.263-0.453-0.515-0.651-0.758
			c-0.197-0.237-0.315-0.424-0.355-0.559c-0.041-0.262-0.063-0.438-0.063-0.528c0-0.523,0.142-0.906,0.419-1.146
			c0.278-0.242,0.603-0.451,0.976-0.628c0.373-0.174,0.75-0.352,1.124-0.525c0.377-0.179,0.663-0.439,0.864-0.792
			c-0.12-1.315-0.076-2.816,0.113-4.505c0.194-1.69,0.584-3.29,1.162-4.805c0.57-1.514,1.363-2.787,2.395-3.816
			c1.025-1.03,2.351-1.544,3.973-1.544c0.585,0,1.095,0.152,1.506,0.459c0.412,0.306,0.746,0.701,1.007,1.183
			c0.252,0.483,0.454,1.011,0.588,1.581c0.143,0.57,0.208,1.142,0.208,1.71c0,1.185-0.282,2.327-0.86,3.42
			c-0.565,1.097-1.209,2.173-1.917,3.226c-0.715,1.052-1.354,2.096-1.928,3.125c-0.571,1.031-0.856,2.053-0.856,3.057
			c0,0.528,0.146,0.992,0.445,1.385c0.286,0.396,0.648,0.714,1.061,0.956c0.414,0.24,0.86,0.418,1.332,0.523
			c0.476,0.11,0.911,0.167,1.309,0.167c0.985,0,1.899-0.232,2.753-0.69c0.845-0.463,1.64-0.956,2.363-1.482
			c0.732-0.526,1.426-1.02,2.075-1.48c0.652-0.461,1.271-0.689,1.861-0.689c0.559,0,0.894,0.175,1.012,0.524
			c0.116,0.354,0.179,0.787,0.179,1.315c0,0.09-0.014,0.297-0.029,0.627c-0.024,0.328-0.033,0.537-0.033,0.625
			c-1.26,1.799-2.688,3.155-4.292,4.08c-1.6,0.921-3.464,1.379-5.596,1.379c-1.854,0-3.467-0.495-4.825-1.479
			c-1.364-0.987-2.677-2.112-3.938-3.388H270.989z M274.515,43.313c-0.025,0.199-0.016,0.397,0.024,0.594
			c0.04,0.199,0.103,0.384,0.183,0.559c0.076,0.175,0.218,0.264,0.413,0.264c0.32,0,0.604-0.121,0.86-0.363
			c0.255-0.239,0.472-0.526,0.646-0.854c0.184-0.33,0.329-0.658,0.449-0.986c0.116-0.329,0.197-0.602,0.239-0.823
			c0.075-0.659-0.051-1.041-0.382-1.154c-0.347-0.106-0.666-0.163-0.982-0.163c-0.711,0-1.129,0.264-1.243,0.789
			c-0.12,0.528-0.183,1.101-0.183,1.712C274.539,42.975,274.534,43.118,274.515,43.313z"/>
	</g>
	<g>
		<path fill="#D3542C" d="M36.501,73.182h-3.822V71.8h9.311v1.382h-3.847v11.194h-1.641V73.182z"/>
		<path fill="#D3542C" d="M49.731,71.136h1.64v5.631h0.039c0.261-0.47,0.67-0.896,1.176-1.16c0.485-0.299,1.062-0.469,1.677-0.469
			c1.212,0,3.154,0.751,3.154,3.866v5.372h-1.64v-5.188c0-1.474-0.544-2.685-2.091-2.685c-1.061,0-1.886,0.746-2.201,1.641
			c-0.095,0.223-0.114,0.466-0.114,0.785v5.446h-1.64V71.136z"/>
		<path fill="#D3542C" d="M72.973,82.212c0,0.782,0.038,1.546,0.132,2.164h-1.472l-0.152-1.139h-0.054
			c-0.487,0.712-1.474,1.344-2.762,1.344c-1.83,0-2.761-1.284-2.761-2.593c0-2.184,1.94-3.378,5.429-3.357v-0.185
			c0-0.752-0.206-2.108-2.05-2.092c-0.86,0-1.733,0.245-2.37,0.674l-0.374-1.105c0.745-0.464,1.845-0.785,2.985-0.785
			c2.778,0,3.449,1.891,3.449,3.7V82.212z M71.37,79.771c-1.79-0.038-3.821,0.28-3.821,2.029c0,1.085,0.706,1.568,1.526,1.568
			c1.195,0,1.961-0.746,2.223-1.512c0.054-0.167,0.073-0.354,0.073-0.52V79.771z"/>
		<path fill="#D3542C" d="M82.916,73.69c-0.615,0-1.024-0.487-1.024-1.068c0-0.579,0.429-1.04,1.062-1.04
			c0.635,0,1.045,0.461,1.045,1.04c0,0.581-0.41,1.068-1.062,1.068H82.916z M82.136,84.376V75.35h1.64v9.026H82.136z"/>
		<path fill="#D3542C" d="M114.054,71.8h1.621v6.066h0.056c0.337-0.486,0.671-0.935,0.99-1.343l3.842-4.724h2.015l-4.549,5.333
			l4.905,7.243h-1.921l-4.122-6.175l-1.215,1.379v4.796h-1.621V71.8z"/>
		<path fill="#D3542C" d="M131.608,73.69c-0.618,0-1.027-0.487-1.027-1.068c0-0.579,0.43-1.04,1.065-1.04
			c0.631,0,1.044,0.461,1.044,1.04c0,0.581-0.413,1.068-1.064,1.068H131.608z M130.824,84.376V75.35h1.643v9.026H130.824z"/>
		<path fill="#D3542C" d="M143.698,73.182v2.168h2.348v1.25h-2.348v4.861c0,1.123,0.315,1.756,1.229,1.756
			c0.448,0,0.71-0.033,0.953-0.109l0.078,1.253c-0.32,0.105-0.827,0.221-1.461,0.221c-0.763,0-1.378-0.258-1.771-0.69
			c-0.446-0.505-0.633-1.307-0.633-2.373V76.6h-1.4v-1.25h1.4V73.69L143.698,73.182z"/>
		<path fill="#D3542C" d="M160.745,84.059c-0.431,0.201-1.375,0.522-2.589,0.522c-2.723,0-4.492-1.849-4.492-4.63
			c0-2.772,1.896-4.813,4.844-4.813c0.967,0,1.831,0.248,2.273,0.488l-0.373,1.255c-0.395-0.206-1.009-0.435-1.9-0.435
			c-2.071,0-3.19,1.55-3.19,3.434c0,2.091,1.345,3.38,3.137,3.38c0.929,0,1.548-0.227,2.013-0.433L160.745,84.059z"/>
		<path fill="#D3542C" d="M169.197,71.136h1.639v5.631h0.036c0.266-0.47,0.675-0.896,1.177-1.16c0.485-0.299,1.062-0.469,1.68-0.469
			c1.217,0,3.153,0.751,3.153,3.866v5.372h-1.645v-5.188c0-1.474-0.536-2.685-2.086-2.685c-1.063,0-1.884,0.746-2.2,1.641
			c-0.093,0.223-0.115,0.466-0.115,0.785v5.446h-1.639V71.136z"/>
		<path fill="#D3542C" d="M187.011,80.138c0.045,2.223,1.438,3.138,3.078,3.138c1.173,0,1.905-0.207,2.5-0.448l0.304,1.158
			c-0.581,0.257-1.591,0.576-3.025,0.576c-2.758,0-4.435-1.847-4.435-4.552c0-2.744,1.623-4.887,4.247-4.887
			c2.944,0,3.711,2.592,3.711,4.254c0,0.337-0.018,0.597-0.054,0.784L187.011,80.138z M191.804,78.964
			c0.019-1.027-0.426-2.667-2.256-2.667c-1.675,0-2.388,1.533-2.516,2.667H191.804z"/>
		<path fill="#D3542C" d="M201.956,77.785c0-0.944-0.022-1.691-0.074-2.436h1.454l0.097,1.473h0.033
			c0.444-0.843,1.494-1.685,2.984-1.685c1.252,0,3.19,0.751,3.19,3.851v5.388h-1.642V79.17c0-1.455-0.539-2.685-2.083-2.685
			c-1.067,0-1.907,0.765-2.205,1.68c-0.08,0.202-0.115,0.503-0.115,0.765v5.446h-1.64V77.785z"/>
		<path fill="#D3542C" d="M219.767,80.138c0.04,2.223,1.441,3.138,3.085,3.138c1.176,0,1.903-0.207,2.493-0.448l0.302,1.158
			c-0.576,0.257-1.583,0.576-3.022,0.576c-2.764,0-4.438-1.847-4.438-4.552c0-2.744,1.621-4.887,4.254-4.887
			c2.946,0,3.715,2.592,3.715,4.254c0,0.337-0.019,0.597-0.062,0.784L219.767,80.138z M224.568,78.964
			c0.018-1.027-0.432-2.667-2.259-2.667c-1.681,0-2.391,1.533-2.521,2.667H224.568z"/>
		<path fill="#D3542C" d="M236.696,73.182v2.168h2.346v1.25h-2.346v4.861c0,1.123,0.312,1.756,1.229,1.756
			c0.446,0,0.704-0.033,0.953-0.109l0.072,1.253c-0.321,0.105-0.817,0.221-1.455,0.221c-0.768,0-1.382-0.258-1.771-0.69
			c-0.449-0.505-0.639-1.307-0.639-2.373V76.6h-1.396v-1.25h1.396V73.69L236.696,73.182z"/>
		<path fill="#D3542C" d="M249.396,73.182v2.168h2.35v1.25h-2.35v4.861c0,1.123,0.317,1.756,1.229,1.756
			c0.445,0,0.713-0.033,0.951-0.109l0.074,1.253c-0.312,0.105-0.82,0.221-1.455,0.221c-0.759,0-1.378-0.258-1.769-0.69
			c-0.449-0.505-0.63-1.307-0.63-2.373V76.6h-1.405v-1.25h1.405V73.69L249.396,73.182z"/>
		<path fill="#D3542C" d="M260.941,80.138c0.04,2.223,1.436,3.138,3.08,3.138c1.173,0,1.904-0.207,2.496-0.448l0.306,1.158
			c-0.58,0.257-1.589,0.576-3.024,0.576c-2.764,0-4.439-1.847-4.439-4.552c0-2.744,1.622-4.887,4.249-4.887
			c2.953,0,3.713,2.592,3.713,4.254c0,0.337-0.013,0.597-0.053,0.784L260.941,80.138z M265.74,78.964
			c0.018-1.027-0.432-2.667-2.261-2.667c-1.677,0-2.387,1.533-2.521,2.667H265.74z"/>
	</g>
	<g>
		<path fill="#B96A37" d="M166.739,28.053l0.013-0.015l6.26,6.302c1.874-1.716,3.052-4.178,3.052-6.92
			c0-5.197-4.209-9.406-9.409-9.406c-2.71,0-5.111,1.188-6.831,3.026C162.038,23.29,164.491,25.776,166.739,28.053z"/>
		<path fill="#737E34" d="M129.963,38.798v3.948l22.875-22.363l0.029,0.03l0.037-0.036l6.938,7.235l3.632,3.749l2.46-2.494
			c-5.196-5.264-11.59-11.757-13.254-13.448L129.963,38.798z"/>
		<path fill="#B9D988" d="M154.216,32.772l3.953,3.956l4.511-4.509l-9.801-10.218l-16.015,15.656l6.233,6.237L154.216,32.772z
			 M152.776,26.926c1.249,0,2.262,1.01,2.262,2.263c0,1.243-1.013,2.259-2.262,2.259c-1.244,0-2.256-1.016-2.256-2.259
			C150.521,27.936,151.532,26.926,152.776,26.926z"/>
	</g>
	<polygon fill="#737E34" points="173.287,36.237 166.756,29.663 156.869,39.693 159.687,42.501 167.025,35.16 171.365,39.498 
		173.287,37.226 	"/>
</g>
</svg>
