<?xml version="1.0" encoding="utf-8"?>
<!-- Generator: Adobe Illustrator 16.0.0, SVG Export Plug-In . SVG Version: 6.00 Build 0)  -->
<!DOCTYPE svg PUBLIC "-//W3C//DTD SVG 1.1//EN" "http://www.w3.org/Graphics/SVG/1.1/DTD/svg11.dtd">
<svg version="1.1" id="Layer_1" xmlns="http://www.w3.org/2000/svg" xmlns:xlink="http://www.w3.org/1999/xlink" x="0px" y="0px"
	 width="300px" height="60px" viewBox="0 0 300 60" enable-background="new 0 0 300 60" xml:space="preserve">
<g>
	<g>
		<path fill="#EDEBCB" d="M10,42.221c0-0.305,0.008-0.602,0.031-0.885c0.018-0.285,0.027-0.539,0.027-0.76s0-0.35,0-0.395
			c0-0.043,0.028-0.15,0.092-0.328c0.058-0.178,0.117-0.375,0.173-0.592c0.06-0.221,0.121-0.418,0.179-0.592
			c0.062-0.178,0.087-0.289,0.087-0.332c0.041-0.305,0.11-0.951,0.208-1.938c0.099-0.988,0.21-2.062,0.327-3.227
			c0.117-1.164,0.238-2.293,0.357-3.389c0.115-1.095,0.195-1.886,0.235-2.369c0.119-1.271,0.486-2.466,1.096-3.586
			c0.613-1.119,1.392-2.093,2.339-2.926c0.948-0.835,1.992-1.493,3.14-1.977c1.145-0.481,2.309-0.723,3.494-0.723
			c0.711,0,1.412,0.088,2.103,0.264c0.688,0.175,1.319,0.448,1.893,0.82c0.572,0.375,1.027,0.88,1.364,1.514
			c0.333,0.639,0.502,1.417,0.502,2.337c0,0.615-0.03,1.13-0.089,1.546c-0.058,0.419-0.228,0.912-0.502,1.482
			c-0.199,0.265-0.557,0.68-1.068,1.25c-0.513,0.572-1.064,1.183-1.655,1.843c-0.594,0.661-1.148,1.273-1.661,1.839
			c-0.514,0.574-0.887,0.971-1.123,1.188c-0.043,0.043-0.21,0.121-0.505,0.229c-0.296,0.109-0.611,0.266-0.947,0.465
			c-0.335,0.195-0.642,0.416-0.917,0.654c-0.277,0.244-0.416,0.496-0.416,0.756c0,0.047,0.008,0.104,0.03,0.166
			c0.021,0.064,0.028,0.121,0.028,0.168c0.749,0.611,1.49,1.107,2.222,1.479c0.73,0.373,1.461,0.723,2.19,1.053
			c0.732,0.328,1.451,0.668,2.162,1.018c0.711,0.355,1.443,0.791,2.192,1.316c1.103,0.133,2.112,0.229,3.021,0.297
			c0.906,0.068,1.775,0.133,2.604,0.197c0.83,0.066,1.659,0.111,2.488,0.133c0.829,0.023,1.737,0.033,2.725,0.033
			c1.064,0,2.072-0.123,3.019-0.363c0.95-0.24,1.937-0.363,2.961-0.363c0.475,0,0.94,0.025,1.394,0.066
			c0.453,0.043,0.777,0.443,0.978,1.186c0.117,0.525-0.042,1.053-0.475,1.578c-0.433,0.527-0.956,0.998-1.569,1.418
			c-0.611,0.418-1.243,0.744-1.895,0.986c-0.652,0.242-1.155,0.361-1.509,0.361c-1.229,0-2.695-0.064-4.416-0.199
			c-1.716-0.131-3.475-0.33-5.269-0.592c-1.797-0.262-3.535-0.592-5.211-0.986c-1.678-0.395-3.11-0.836-4.296-1.316
			c-0.392-0.174-0.825-0.457-1.3-0.854c-0.473-0.396-0.947-0.801-1.422-1.217c-0.473-0.416-0.948-0.793-1.422-1.125
			c-0.473-0.324-0.931-0.49-1.363-0.49c-0.119,0-0.287,0.078-0.502,0.232C15.91,38.723,15.8,38.844,15.8,38.93v9.74
			c0,0.352-0.095,0.613-0.293,0.791c-0.198,0.176-0.435,0.295-0.712,0.359c-0.275,0.068-0.555,0.109-0.827,0.133
			c-0.277,0.018-0.496,0.033-0.652,0.033c-0.75,0-1.344-0.254-1.778-0.76c-0.434-0.504-0.768-1.115-1.007-1.838
			c-0.235-0.727-0.38-1.49-0.444-2.305C10.031,44.271,10,43.562,10,42.945C10,42.77,10,42.529,10,42.221z M18.856,23.302
			c-0.693,0.55-1.266,1.23-1.719,2.04c-0.457,0.813-0.782,1.69-0.981,2.634c-0.195,0.945-0.295,1.831-0.295,2.666
			c0.71,0,1.491-0.174,2.341-0.525c0.85-0.352,1.639-0.834,2.368-1.447c0.732-0.618,1.354-1.318,1.867-2.109
			c0.511-0.789,0.769-1.619,0.769-2.502c0-0.438-0.238-0.808-0.709-1.117c-0.477-0.305-0.87-0.459-1.184-0.459
			C20.365,22.481,19.544,22.754,18.856,23.302z"/>
		<path fill="#EDEBCB" d="M46.301,40.281c0.275-1.076,0.653-2.193,1.128-3.357c0.472-1.158,1.035-2.312,1.687-3.455
			c0.651-1.141,1.372-2.16,2.162-3.06c0.791-0.897,1.608-1.621,2.456-2.171c0.848-0.55,1.727-0.823,2.638-0.823
			c0.154,0,0.475,0.133,0.949,0.396c0.472,0.263,0.993,0.571,1.566,0.92c0.573,0.354,1.134,0.693,1.688,1.021
			c0.555,0.328,0.966,0.561,1.246,0.69c0.077,0.046,0.186,0.142,0.323,0.297c0.14,0.156,0.229,0.253,0.267,0.296
			c0,0.306-0.01,0.846-0.029,1.609c-0.019,0.771-0.028,1.572-0.028,2.404c0,0.834,0.01,1.623,0.028,2.369
			c0.02,0.748,0.029,1.271,0.029,1.578c0,0.354,0.018,0.783,0.06,1.285c0.038,0.504,0.119,1.018,0.236,1.545
			c0.118,0.525,0.274,1.033,0.474,1.514c0.198,0.484,0.476,0.854,0.828,1.119c0.199,0,0.614,0.016,1.244,0.031
			c0.634,0.023,1.05,0.031,1.248,0.031c0.827,0,1.576-0.129,2.251-0.393c0.669-0.262,1.29-0.547,1.864-0.857
			c0.57-0.303,1.084-0.59,1.538-0.852c0.456-0.266,0.86-0.396,1.217-0.396c0.312,0,0.491,0.221,0.531,0.658
			c0.04,0.439,0.06,0.748,0.06,0.918c0,0.971-0.288,1.816-0.859,2.543c-0.573,0.719-1.283,1.324-2.131,1.803
			c-0.849,0.482-1.748,0.844-2.696,1.086c-0.948,0.24-1.774,0.361-2.485,0.361c-1.03,0-1.866-0.318-2.52-0.953
			c-0.652-0.633-1.243-1.346-1.776-2.139c-0.531-0.787-1.038-1.5-1.51-2.139c-0.474-0.637-1.045-0.953-1.716-0.953
			c-0.557,0-1.157,0.449-1.806,1.35c-0.652,0.898-1.334,1.885-2.044,2.961c-0.709,1.072-1.442,2.062-2.193,2.961
			c-0.751,0.895-1.541,1.348-2.368,1.348c-0.829,0-1.5-0.326-2.013-0.988c-0.515-0.654-0.917-1.447-1.214-2.369
			c-0.296-0.92-0.494-1.873-0.593-2.859c-0.1-0.988-0.148-1.83-0.148-2.535C45.889,42.287,46.025,41.355,46.301,40.281z
			 M49.885,46.143c0.099,0.191,0.423,0.445,0.98,0.75c1.655-1.49,2.998-3.1,4.025-4.836c1.025-1.73,1.538-3.785,1.538-6.15
			c0-0.088,0-0.264,0-0.529c0-0.305-0.01-0.625-0.028-0.953c-0.022-0.328-0.029-0.623-0.029-0.887c0-0.309,0-0.529,0-0.658
			c-0.079-0.088-0.26-0.209-0.536-0.365c-0.274-0.15-0.472-0.229-0.592-0.229c-0.945,0-1.766,0.553-2.458,1.643
			c-0.69,1.098-1.264,2.371-1.717,3.82c-0.452,1.445-0.79,2.883-1.006,4.309c-0.217,1.428-0.325,2.465-0.325,3.127
			C49.738,45.621,49.787,45.938,49.885,46.143z"/>
		<path fill="#EDEBCB" d="M74.64,47.023c0.059-0.174,0.12-0.373,0.179-0.592c0.059-0.217,0.119-0.412,0.176-0.59
			c0.059-0.174,0.091-0.285,0.091-0.328c0.315-1.848,0.572-3.49,0.768-4.938c0.198-1.447,0.345-2.873,0.444-4.277
			c0.098-1.402,0.139-2.861,0.121-4.375c-0.022-1.515-0.09-3.279-0.21-5.3c0.198-0.479,0.416-0.809,0.653-0.984
			c0.236-0.175,0.57-0.263,1.006-0.263c0.396,0,0.74,0.152,1.035,0.459c0.296,0.308,0.562,0.657,0.8,1.053
			c0.237,0.395,0.463,0.799,0.683,1.218c0.216,0.416,0.462,0.737,0.738,0.954c0.395-0.349,0.752-0.8,1.068-1.35
			c0.313-0.548,0.651-1.087,1.005-1.614c0.355-0.524,0.741-0.982,1.156-1.376c0.416-0.397,0.896-0.595,1.45-0.595
			c0.553,0,1.033,0.198,1.45,0.595c0.416,0.394,0.769,0.888,1.068,1.479c0.295,0.589,0.524,1.21,0.68,1.841
			c0.156,0.639,0.277,1.176,0.354,1.614c0.042,0.265,0.061,0.724,0.061,1.381c0,0.615,0,1.293,0,2.039c0,0.701,0,1.361,0,1.975
			c0,0.615-0.019,1.055-0.061,1.316c0.08,0.35,0.24,0.559,0.477,0.625c0.237,0.064,0.472,0.1,0.709,0.1
			c0.078,0,0.168-0.01,0.266-0.035c0.102-0.021,0.17-0.049,0.208-0.098l5.98-12.766c0.199-0.35,0.494-0.646,0.889-0.89
			c0.395-0.239,0.75-0.361,1.068-0.361c0.592,0,1.015,0.263,1.27,0.788c0.259,0.522,0.425,1.136,0.505,1.833
			c0.08,0.697,0.118,1.395,0.118,2.093c0,0.657,0,1.115,0,1.378c0.041,0.698,0.108,1.766,0.209,3.208
			c0.096,1.439,0.208,2.932,0.325,4.484c0.118,1.547,0.237,2.979,0.355,4.289c0.119,1.311,0.196,2.16,0.236,2.551
			c0,0.086,0.031,0.25,0.092,0.492c0.056,0.24,0.115,0.494,0.178,0.752c0.059,0.262,0.117,0.516,0.175,0.752
			c0.06,0.242,0.091,0.385,0.091,0.43v0.979c0,0.568-0.068,1.059-0.207,1.475c-0.142,0.416-0.505,0.621-1.097,0.621
			c-0.238,0-0.543-0.053-0.919-0.166c-0.374-0.109-0.75-0.27-1.124-0.49c-0.376-0.219-0.69-0.484-0.948-0.789
			c-0.258-0.307-0.383-0.658-0.383-1.053V33.207l-0.832-0.592c-0.512,0.35-1.064,1.008-1.657,1.973
			c-0.592,0.967-1.195,2.062-1.805,3.293c-0.612,1.229-1.243,2.498-1.896,3.814c-0.651,1.314-1.274,2.523-1.865,3.619
			c-0.596,1.102-1.157,1.998-1.692,2.697c-0.53,0.701-1.015,1.053-1.449,1.053c-0.315,0-0.593-0.043-0.829-0.129
			c-0.236-0.088-0.515-0.264-0.829-0.523c0-0.219-0.01-0.664-0.029-1.34c-0.02-0.672-0.031-1.117-0.031-1.334
			c0-2.176,0.069-4.312,0.208-6.4c0.138-2.086,0.206-4.219,0.206-6.395c-0.827,0-1.479,0.428-1.952,1.281
			c-0.474,0.859-0.86,1.943-1.157,3.262c-0.295,1.312-0.563,2.717-0.799,4.209c-0.233,1.494-0.523,2.893-0.855,4.211
			c-0.339,1.316-0.755,2.404-1.245,3.26c-0.494,0.854-1.175,1.281-2.043,1.281c-0.235,0-0.513-0.098-0.831-0.299
			c-0.314-0.195-0.611-0.447-0.887-0.756s-0.514-0.646-0.712-1.021c-0.199-0.369-0.295-0.711-0.295-1.018
			C74.552,47.312,74.583,47.201,74.64,47.023z"/>
		<path fill="#EDEBCB" d="M105.049,40.281c0.278-1.076,0.654-2.193,1.128-3.357c0.473-1.158,1.035-2.312,1.685-3.455
			c0.651-1.141,1.375-2.16,2.163-3.06c0.788-0.897,1.607-1.621,2.459-2.171c0.845-0.55,1.725-0.823,2.636-0.823
			c0.156,0,0.473,0.133,0.947,0.396c0.473,0.263,0.995,0.571,1.567,0.92c0.573,0.354,1.137,0.693,1.688,1.021
			c0.554,0.328,0.968,0.561,1.246,0.69c0.076,0.046,0.186,0.142,0.324,0.297c0.139,0.156,0.225,0.253,0.267,0.296
			c0,0.306-0.012,0.846-0.03,1.609c-0.021,0.771-0.029,1.572-0.029,2.404c0,0.834,0.008,1.623,0.029,2.369
			c0.018,0.748,0.03,1.271,0.03,1.578c0,0.354,0.018,0.783,0.061,1.285c0.038,0.504,0.117,1.018,0.236,1.545
			c0.117,0.525,0.274,1.033,0.474,1.514c0.197,0.484,0.474,0.854,0.829,1.119c0.198,0,0.607,0.016,1.242,0.031
			c0.633,0.023,1.047,0.031,1.243,0.031c0.831,0,1.579-0.129,2.251-0.393c0.671-0.262,1.292-0.547,1.864-0.857
			c0.575-0.303,1.085-0.59,1.542-0.852c0.451-0.266,0.859-0.396,1.212-0.396c0.315,0,0.495,0.221,0.534,0.658
			c0.04,0.439,0.062,0.748,0.062,0.918c0,0.971-0.286,1.816-0.86,2.543c-0.573,0.719-1.284,1.324-2.132,1.803
			c-0.848,0.482-1.748,0.844-2.694,1.086c-0.947,0.24-1.777,0.361-2.487,0.361c-1.027,0-1.864-0.318-2.516-0.953
			c-0.652-0.633-1.243-1.346-1.778-2.139c-0.533-0.787-1.035-1.5-1.51-2.139c-0.471-0.637-1.045-0.953-1.713-0.953
			c-0.557,0-1.157,0.449-1.81,1.35c-0.65,0.898-1.331,1.885-2.044,2.961c-0.71,1.072-1.44,2.062-2.19,2.961
			c-0.75,0.895-1.537,1.348-2.367,1.348c-0.83,0-1.503-0.326-2.015-0.988c-0.513-0.654-0.917-1.447-1.213-2.369
			c-0.295-0.92-0.496-1.873-0.596-2.859c-0.097-0.988-0.146-1.83-0.146-2.535C104.636,42.287,104.774,41.355,105.049,40.281z
			 M108.634,46.143c0.099,0.191,0.424,0.445,0.976,0.75c1.658-1.49,3.001-3.1,4.026-4.836c1.027-1.73,1.542-3.785,1.542-6.15
			c0-0.088,0-0.264,0-0.529c0-0.305-0.01-0.625-0.028-0.953c-0.019-0.328-0.029-0.623-0.029-0.887c0-0.309,0-0.529,0-0.658
			c-0.079-0.088-0.258-0.209-0.535-0.365c-0.276-0.15-0.472-0.229-0.592-0.229c-0.947,0-1.768,0.553-2.457,1.643
			c-0.692,1.098-1.265,2.371-1.719,3.82c-0.456,1.445-0.791,2.883-1.008,4.309c-0.215,1.428-0.321,2.465-0.321,3.127
			C108.488,45.621,108.536,45.938,108.634,46.143z"/>
		<path fill="#EDEBCB" d="M178.425,35.148c0.115-0.436,0.43-1.029,0.949-1.773l1.123-14.633c0.081-0.703,0.355-1.097,0.827-1.187
			c0.48-0.086,0.905-0.129,1.307-0.129c0.67,0,1.223,0.075,1.655,0.229c0.438,0.155,0.651,0.67,0.651,1.547
			c0,1.099-0.086,2.185-0.265,3.262c-0.176,1.079-0.387,2.155-0.621,3.228c-0.238,1.077-0.444,2.167-0.62,3.266
			c-0.182,1.098-0.27,2.195-0.27,3.295c0,0.221,0.005,0.547,0.032,0.986c0.018,0.441,0.026,0.684,0.026,0.725l1.126,1.184
			c0.829-0.131,1.535-0.26,2.132-0.393c0.594-0.129,1.194-0.271,1.808-0.426c0.609-0.156,1.119-0.277,1.509-0.365
			c0.943-0.221,1.651-0.59,2.103-1.117c0.458-0.527,0.68-1.34,0.68-2.442c0-2.767-0.199-5.533-0.585-8.302
			c-0.4-2.768-0.598-5.556-0.598-8.369c0-0.924,0.166-1.647,0.503-2.174c0.333-0.53,0.938-0.791,1.808-0.791
			c0.156,0,0.353,0,0.587,0c0.239,0,0.48,0.042,0.715,0.131c0.237,0.088,0.434,0.22,0.591,0.397c0.16,0.174,0.236,0.413,0.236,0.724
			v18.324c0,0.395,0.121,0.723,0.355,0.991c0.236,0.262,0.489,0.527,0.741,0.789c0.259,0.266,0.507,0.537,0.744,0.824
			c0.234,0.283,0.353,0.627,0.353,1.021s-0.225,0.855-0.684,1.385c-0.453,0.527-0.782,0.879-0.976,1.051
			c0,0.355,0.009,0.959,0.028,1.816c0.021,0.859,0.029,1.793,0.029,2.803c0,0.965-0.009,1.877-0.029,2.732
			c-0.02,0.857-0.028,1.463-0.028,1.814c-0.036,0.617-0.076,1.152-0.121,1.617c-0.04,0.457-0.123,0.846-0.262,1.152
			c-0.138,0.307-0.355,0.539-0.654,0.689c-0.292,0.154-0.697,0.232-1.213,0.232c-0.75,0-1.394-0.297-1.923-0.893
			c-0.532-0.59-0.801-1.324-0.801-2.201c0-0.393,0.09-0.746,0.269-1.053c0.177-0.309,0.373-0.596,0.59-0.855
			c0.215-0.264,0.418-0.541,0.597-0.822c0.172-0.287,0.262-0.604,0.262-0.957c0-0.043,0.009-0.283,0.03-0.723
			c0.019-0.438,0-0.932-0.055-1.479c-0.065-0.549-0.178-1.076-0.331-1.578c-0.161-0.506-0.414-0.869-0.764-1.086h-0.239
			c-0.438,0-1.146,0.086-2.134,0.264c-0.992,0.176-1.995,0.426-3.022,0.754c-1.029,0.332-1.937,0.715-2.728,1.152
			c-0.787,0.439-1.183,0.898-1.183,1.383v0.723c0,0.221,0.032,0.59,0.094,1.117c0.05,0.525,0.121,1.076,0.173,1.646
			c0.064,0.572,0.115,1.121,0.181,1.645c0.061,0.527,0.087,0.877,0.087,1.053c0.201,0.658,0.503,1.031,0.921,1.117
			c0.411,0.092,0.836,0.111,1.271,0.068c0.438-0.047,0.819-0.021,1.159,0.066c0.33,0.088,0.5,0.479,0.5,1.184
			c0,0.527-0.11,1.051-0.329,1.58c-0.219,0.523-0.5,0.998-0.861,1.416c-0.351,0.412-0.76,0.758-1.209,1.018
			c-0.451,0.264-0.913,0.393-1.389,0.393c-0.678,0-1.263-0.336-1.774-1.021c-0.519-0.68-0.963-1.559-1.341-2.635
			c-0.377-1.074-0.679-2.273-0.916-3.59c-0.234-1.318-0.436-2.613-0.591-3.889c-0.159-1.273-0.267-2.461-0.322-3.559
			c-0.06-1.1-0.092-1.957-0.092-2.57C178.248,36.188,178.308,35.594,178.425,35.148z"/>
		<path fill="#EDEBCB" d="M200.753,39.555c0.355-1.338,0.826-2.574,1.421-3.717c0.593-1.139,1.293-2.256,2.103-3.355
			c0.809-1.094,1.666-2.303,2.571-3.621c0.2-0.304,0.406-0.646,0.596-1.016c0.194-0.375,0.409-0.713,0.621-1.023
			c0.215-0.309,0.463-0.57,0.745-0.791c0.268-0.218,0.629-0.326,1.061-0.326c0.75,0,1.541,0.251,2.372,0.756
			c0.829,0.504,1.634,1.15,2.424,1.94c0.791,0.792,1.544,1.7,2.25,2.732c0.711,1.029,1.339,2.082,1.87,3.158
			c0.533,1.074,0.956,2.113,1.271,3.125c0.319,1.008,0.471,1.908,0.471,2.699c0,1.623-0.332,3.027-1,4.209
			c-0.675,1.188-1.506,2.25-2.49,3.193c-0.983,0.943-2.049,1.807-3.195,2.596c-1.148,0.795-2.196,1.605-3.136,2.438h-6.043
			c-0.791,0-1.475-0.316-2.045-0.953c-0.576-0.637-1.039-1.393-1.392-2.273c-0.353-0.873-0.612-1.785-0.771-2.729
			c-0.161-0.943-0.241-1.721-0.241-2.336C200.215,42.463,200.391,40.895,200.753,39.555z M204.896,48.043
			c0.553,0.596,1.281,0.887,2.197,0.887c1.183,0,2.346-0.236,3.492-0.723c1.146-0.482,2.169-1.15,3.074-2.006
			c0.911-0.855,1.653-1.875,2.22-3.057c0.57-1.186,0.865-2.459,0.865-3.818c0-0.572-0.137-1.283-0.389-2.141
			c-0.258-0.854-0.613-1.676-1.065-2.463c-0.459-0.795-0.977-1.473-1.572-2.043c-0.587-0.568-1.241-0.852-1.955-0.852
			c-0.076,0-0.255,0.02-0.528,0.062c-2.571,1.404-4.402,3.201-5.511,5.396c-1.105,2.191-1.658,4.867-1.658,8.027
			C204.065,46.545,204.343,47.453,204.896,48.043z"/>
		<path fill="#EDEBCB" d="M234.298,41.529c-0.611,0.9-1.248,1.887-1.923,2.961c-0.67,1.078-1.426,2.066-2.274,2.963
			c-0.852,0.896-1.832,1.348-2.933,1.348c-0.987,0-1.776-0.238-2.368-0.721c-0.593-0.482-1.048-1.119-1.365-1.91
			c-0.314-0.789-0.522-1.666-0.616-2.635c-0.104-0.963-0.154-1.947-0.154-2.959c0-1.008,0.021-1.963,0.056-2.861
			c0.045-0.902,0.045-1.654,0-2.273c0-0.041-0.026-0.15-0.085-0.326c-0.057-0.176-0.118-0.371-0.177-0.592
			c-0.062-0.219-0.115-0.418-0.179-0.596c-0.062-0.17-0.089-0.281-0.089-0.326s0.027-0.152,0.089-0.328
			c0.063-0.178,0.117-0.371,0.179-0.594c0.059-0.219,0.12-0.416,0.177-0.592c0.059-0.174,0.085-0.285,0.085-0.328
			c0.045-0.174,0.099-0.493,0.152-0.956c0.058-0.459,0.118-0.953,0.179-1.48c0.06-0.526,0.109-1.019,0.149-1.478
			c0.035-0.465,0.059-0.782,0.059-0.957c0.115-0.351,0.285-0.549,0.502-0.592c0.217-0.043,0.446-0.064,0.679-0.064
			c0.36,0,0.693,0.122,1.009,0.361c0.32,0.24,0.596,0.549,0.833,0.92c0.232,0.375,0.428,0.781,0.589,1.217
			c0.161,0.441,0.234,0.835,0.234,1.188c0,0.087-0.026,0.315-0.089,0.689c-0.056,0.372-0.12,0.757-0.172,1.152
			c-0.062,0.391-0.121,0.779-0.184,1.152c-0.058,0.373-0.087,0.602-0.087,0.689c0,0.045,0,0.174,0,0.396
			c0,0.219-0.011,0.471-0.031,0.754c-0.021,0.287-0.028,0.582-0.028,0.891c0,0.264,0,0.484,0,0.656c0,0.482-0.025,1.152-0.088,2.008
			c-0.062,0.854-0.062,1.711,0,2.566c0.062,0.857,0.217,1.59,0.47,2.203c0.259,0.613,0.708,0.922,1.333,0.922
			c0.402,0,0.804-0.229,1.218-0.691c0.413-0.461,0.8-0.986,1.156-1.576c0.35-0.596,0.656-1.154,0.919-1.68
			c0.253-0.529,0.422-0.857,0.496-0.988c0.713-1.096,1.388-2.234,2.013-3.42c0.637-1.186,1.171-2.414,1.6-3.684
			c0.438-1.273,0.735-2.589,0.89-3.949c0.165-1.362,0.12-2.74-0.114-4.146c0.194-0.659,0.482-1.031,0.859-1.119
			c0.374-0.087,0.796-0.132,1.268-0.132c0.439,0,0.845,0.023,1.217,0.067c0.373,0.044,0.72,0.24,1.037,0.589
			c0,0.176,0.011,0.573,0.03,1.184c0.017,0.617,0.029,1.032,0.029,1.253c0,1.269-0.1,2.545-0.292,3.815
			c-0.203,1.272-0.302,2.546-0.302,3.818v0.855c0.04,0.35,0.112,0.92,0.208,1.711c0.094,0.787,0.21,1.598,0.326,2.432
			c0.118,0.836,0.226,1.615,0.328,2.338c0.097,0.723,0.166,1.195,0.207,1.414c0.117,0.615,0.383,1.104,0.798,1.479
			c0.419,0.373,0.905,0.668,1.481,0.891c0.569,0.221,1.142,0.375,1.716,0.459c0.571,0.092,1.081,0.156,1.515,0.199v0.66
			c0,0.482-0.123,0.953-0.364,1.412c-0.23,0.461-0.527,0.867-0.885,1.219c-0.353,0.352-0.76,0.623-1.213,0.818
			c-0.451,0.201-0.92,0.258-1.39,0.166c-1.025-0.174-1.875-0.744-2.551-1.709c-0.668-0.967-1.252-2.008-1.745-3.125
			c-0.493-1.119-0.93-2.129-1.302-3.029c-0.379-0.898-0.765-1.348-1.16-1.348C235.554,40.182,234.91,40.631,234.298,41.529z"/>
		<path fill="#EDEBCB" d="M250.32,46.006c0.474-0.549,1.048-0.822,1.719-0.822c0.115,0,0.285,0.012,0.507,0.031
			c0.212,0.025,0.364,0.035,0.438,0.035c0.04,0,0.141,0.031,0.3,0.096c0.153,0.07,0.323,0.146,0.5,0.232
			c0.181,0.09,0.344,0.152,0.507,0.199c0.152,0.043,0.252,0.064,0.293,0.064c0.276-0.045,0.695-0.166,1.242-0.365
			c0.554-0.195,1.128-0.434,1.713-0.721c0.597-0.281,1.135-0.594,1.604-0.92c0.48-0.328,0.795-0.67,0.944-1.021
			c-0.704-0.965-1.762-1.787-3.165-2.469c-1.398-0.68-2.804-1.357-4.204-2.039c-1.399-0.68-2.623-1.438-3.673-2.27
			c-1.043-0.832-1.571-1.908-1.571-3.225c0-1.141,0.508-2.214,1.514-3.226c1.007-1.007,2.205-1.884,3.585-2.632
			c1.381-0.745,2.786-1.338,4.229-1.776c1.446-0.438,2.582-0.661,3.407-0.661c0.867,0,1.698,0.101,2.491,0.297
			c0.788,0.199,1.482,0.504,2.072,0.922c0.59,0.417,1.065,0.976,1.424,1.678c0.349,0.704,0.527,1.582,0.527,2.633
			c0,0.832-0.034,1.459-0.114,1.875c-0.085,0.414-0.523,0.623-1.303,0.623c-0.085,0-0.219-0.008-0.417-0.033
			c-0.197-0.021-0.334-0.031-0.414-0.031c-0.516-0.654-0.961-1.226-1.338-1.71c-0.373-0.481-0.76-0.877-1.15-1.185
			c-0.396-0.305-0.841-0.526-1.333-0.659c-0.49-0.13-1.094-0.197-1.808-0.197c-0.55,0-1.164,0.047-1.832,0.131
			c-0.675,0.09-1.313,0.266-1.928,0.531c-0.608,0.261-1.122,0.625-1.54,1.084c-0.412,0.458-0.623,1.042-0.623,1.742
			c0,0.746,0.321,1.383,0.945,1.91c0.637,0.527,1.418,1.02,2.339,1.482c0.932,0.457,1.955,0.895,3.056,1.312
			c1.105,0.418,2.122,0.854,3.047,1.316c0.928,0.463,1.707,0.986,2.342,1.576c0.633,0.598,0.947,1.285,0.947,2.076
			c0,0.789-0.248,1.537-0.737,2.236c-0.498,0.705-1.15,1.363-1.954,1.979c-0.812,0.609-1.703,1.16-2.668,1.641
			c-0.967,0.482-1.938,0.9-2.904,1.25c-0.965,0.352-1.861,0.625-2.691,0.822c-0.831,0.199-1.485,0.295-1.958,0.295
			c-0.783,0-1.493-0.129-2.126-0.395c-0.637-0.26-0.952-0.854-0.952-1.775C249.607,47.201,249.845,46.557,250.32,46.006z"/>
		<path fill="#EDEBCB" d="M270.989,44.854h-0.236c-0.121,0.045-0.4,0.145-0.834,0.295c-0.438,0.154-0.708,0.254-0.824,0.297
			c-0.121-0.043-0.293-0.174-0.505-0.393c-0.219-0.219-0.446-0.465-0.682-0.727c-0.234-0.262-0.453-0.514-0.651-0.758
			c-0.197-0.236-0.315-0.424-0.355-0.559c-0.041-0.262-0.063-0.438-0.063-0.527c0-0.523,0.142-0.906,0.419-1.146
			c0.278-0.242,0.603-0.451,0.976-0.629c0.373-0.174,0.75-0.352,1.124-0.525c0.377-0.178,0.663-0.438,0.864-0.791
			c-0.12-1.314-0.076-2.816,0.113-4.506c0.194-1.689,0.584-3.289,1.162-4.804c0.57-1.514,1.363-2.787,2.395-3.816
			c1.025-1.03,2.351-1.544,3.973-1.544c0.585,0,1.095,0.152,1.506,0.459c0.412,0.306,0.746,0.701,1.007,1.183
			c0.252,0.483,0.454,1.011,0.588,1.581c0.143,0.57,0.208,1.142,0.208,1.71c0,1.185-0.282,2.327-0.86,3.42
			c-0.565,1.096-1.209,2.174-1.917,3.225c-0.715,1.053-1.354,2.096-1.928,3.127c-0.571,1.029-0.856,2.053-0.856,3.057
			c0,0.527,0.146,0.992,0.445,1.385c0.286,0.395,0.648,0.713,1.061,0.955c0.414,0.24,0.86,0.418,1.332,0.523
			c0.476,0.111,0.911,0.168,1.309,0.168c0.985,0,1.899-0.232,2.753-0.691c0.845-0.463,1.64-0.955,2.363-1.482
			c0.732-0.525,1.426-1.02,2.075-1.48c0.652-0.461,1.271-0.689,1.861-0.689c0.559,0,0.894,0.176,1.012,0.525
			c0.116,0.354,0.179,0.787,0.179,1.314c0,0.09-0.014,0.297-0.029,0.627c-0.024,0.328-0.033,0.537-0.033,0.625
			c-1.26,1.799-2.688,3.156-4.292,4.08c-1.6,0.922-3.464,1.379-5.596,1.379c-1.854,0-3.467-0.494-4.825-1.479
			c-1.364-0.988-2.677-2.113-3.938-3.389H270.989z M274.515,33.699c-0.025,0.197-0.016,0.396,0.024,0.594
			c0.04,0.199,0.103,0.383,0.183,0.559c0.076,0.174,0.218,0.264,0.413,0.264c0.32,0,0.604-0.121,0.86-0.363
			c0.255-0.24,0.472-0.527,0.646-0.855c0.184-0.328,0.329-0.656,0.449-0.984c0.116-0.33,0.197-0.602,0.239-0.824
			c0.075-0.658-0.051-1.04-0.382-1.153c-0.347-0.106-0.666-0.163-0.982-0.163c-0.711,0-1.129,0.263-1.243,0.789
			c-0.12,0.527-0.183,1.1-0.183,1.713C274.539,33.359,274.534,33.504,274.515,33.699z"/>
	</g>
	<g>
		<g>
			<path fill="#B96A37" d="M166.739,19.438l0.013-0.015l6.26,6.302c1.874-1.716,3.052-4.178,3.052-6.92
				c0-5.197-4.209-9.406-9.409-9.406c-2.71,0-5.111,1.188-6.831,3.026C162.038,14.675,164.491,17.162,166.739,19.438z"/>
			<path fill="#737E34" d="M129.963,30.184v3.947l22.875-22.362l0.029,0.03l0.037-0.036l6.938,7.235l3.632,3.749l2.46-2.494
				c-5.196-5.264-11.59-11.757-13.254-13.448L129.963,30.184z"/>
			<path fill="#B9D988" d="M154.216,24.158l3.953,3.956l4.511-4.509l-9.801-10.218l-16.015,15.656l6.233,6.237L154.216,24.158z
				 M152.776,18.311c1.249,0,2.262,1.01,2.262,2.263c0,1.243-1.013,2.259-2.262,2.259c-1.244,0-2.256-1.016-2.256-2.259
				C150.521,19.321,151.532,18.311,152.776,18.311z"/>
		</g>
		<polygon fill="#737E34" points="173.287,27.623 166.756,21.048 156.869,31.078 159.687,33.887 167.025,26.545 171.365,30.883 
			173.287,28.611 		"/>
	</g>
</g>
</svg>
